<svg xmlns="http://www.w3.org/2000/svg" viewBox="0 0 332.9 332.9">
<defs>
<style>
.cls-1, .cls-3 {
  fill: none;
  stroke: #f7931e;
  stroke-miterlimit: 10;
}

.cls-1 {
  stroke-width: 0.42px;
}

.cls-2 {
  opacity: 0.6;
}

.cls-3 {
  font-size: 60px;
  font-family: Iceland-Regular, Iceland;
}
#first ,#second{
  animation: rotate 4s linear  infinite;
  transform-origin:50% 50%;
}
#fourth,#third{
  animation: Rrotate 3s linear alternate infinite;
  transform-origin:50% 50%;
}
#first [class*="cls"], #second [class*="cls"]{
  animation: first 4s linear alternate infinite;
}
#third [class*="cls"], #fourth [class*="cls"]{
  animation: second 4s linear alternate infinite;
}
text{
 animation: first 4s linear alternate infinite;
}
@keyframes first{
  0%{
    stroke: white;
  }
  50%{
    stroke:orangered;
  }
  100%{
    stroke:#f7931e;
  }
}
@keyframes second{
  0%{
    stroke: white;
  }
  50%{
    stroke:orangered;
  }
  100%{
    stroke:#f7931e;
  }
}
@keyframes rotate{
  0%{
    transform: rotate(0deg);
  }
  100%{
    transform: rotate(360deg);
  }
}
@keyframes Rrotate{
  0%{
    transform: rotate(360deg);
  }
  100%{
    transform: rotate(0deg);
  }
}
@keyframes scale{
  0%{
    transform: scale(1);
  }
  100%{
    transform: scale(0.6);
  }
}
</style>
</defs>
<title>About Logo_1</title>
<g id="Layer_2" data-name="Layer 2">
<g id="About">
<g id="Icons">
<g>
<g>
<g>
<g id="first">
<polygon class="cls-1" points="20.3 103 10.6 213.3 101.3 276.8 201.7 230 211.3 119.7 120.6 56.2 20.3 103"/>
<polygon class="cls-1" points="1.9 147.2 39.8 251.3 148.8 270.5 220 185.7 182.1 81.6 73.1 62.4 1.9 147.2"/>
<polygon class="cls-1" points="4 195.1 82.3 273.4 189.3 244.8 217.9 137.8 139.6 59.5 32.7 88.2 4 195.1"/>
<polygon class="cls-1" points="26.1 237.6 130.2 275.5 215 204.3 195.8 95.3 91.7 57.4 6.9 128.6 26.1 237.6"/>
<polygon class="cls-1" points="64.2 266.8 174.5 257.2 221.3 156.8 157.8 66.1 47.5 75.8 0.7 176.1 64.2 266.8"/>
<polygon class="cls-1" points="111 277.2 206.9 221.8 206.9 111.1 111 55.7 15.1 111.1 15.1 221.8 111 277.2"/>
<polygon class="cls-1" points="157.8 266.8 221.3 176.1 174.5 75.8 64.2 66.1 0.7 156.8 47.5 257.2 157.8 266.8"/>
<polygon class="cls-1" points="195.8 237.6 215 128.6 130.2 57.4 26.1 95.3 6.9 204.3 91.7 275.5 195.8 237.6"/>
<polygon class="cls-1" points="217.9 195.1 189.3 88.2 82.3 59.5 4 137.8 32.7 244.8 139.6 273.4 217.9 195.1"/>
<polygon class="cls-1" points="220 147.2 148.8 62.4 39.8 81.6 1.9 185.7 73.1 270.5 182.1 251.3 220 147.2"/>
<polygon class="cls-1" points="201.7 103 101.3 56.2 10.6 119.7 20.3 230 120.6 276.8 211.3 213.3 201.7 103"/>
<polygon class="cls-1" points="166.3 70.6 55.6 70.6 0.2 166.5 55.6 262.4 166.3 262.4 221.7 166.5 166.3 70.6"/>
</g>
<g id="second">
<polygon class="cls-1" points="131.3 103 121.6 213.3 212.3 276.8 312.7 230 322.3 119.7 231.6 56.2 131.3 103"/>
<polygon class="cls-1" points="112.9 147.2 150.8 251.3 259.8 270.5 331 185.7 293.1 81.6 184.1 62.4 112.9 147.2"/>
<polygon class="cls-1" points="115 195.1 193.3 273.4 300.3 244.8 328.9 137.8 250.6 59.5 143.7 88.2 115 195.1"/>
<polygon class="cls-1" points="137.1 237.6 241.2 275.5 326 204.3 306.8 95.3 202.7 57.4 117.9 128.6 137.1 237.6"/>
<polygon class="cls-1" points="175.2 266.8 285.5 257.2 332.3 156.8 268.8 66.1 158.5 75.8 111.7 176.1 175.2 266.8"/>
<polygon class="cls-1" points="222 277.2 317.9 221.8 317.9 111.1 222 55.7 126.1 111.1 126.1 221.8 222 277.2"/>
<polygon class="cls-1" points="268.8 266.8 332.3 176.1 285.5 75.8 175.2 66.1 111.7 156.8 158.5 257.2 268.8 266.8"/>
<polygon class="cls-1" points="306.8 237.6 326 128.6 241.2 57.4 137.1 95.3 117.9 204.3 202.7 275.5 306.8 237.6"/>
<polygon class="cls-1" points="328.9 195.1 300.3 88.2 193.3 59.5 115 137.8 143.7 244.8 250.6 273.4 328.9 195.1"/>
<polygon class="cls-1" points="331 147.2 259.8 62.4 150.8 81.6 112.9 185.7 184.1 270.5 293.1 251.3 331 147.2"/>
<polygon class="cls-1" points="312.7 103 212.3 56.2 121.6 119.7 131.3 230 231.6 276.8 322.3 213.3 312.7 103"/>
<polygon class="cls-1" points="277.3 70.6 166.6 70.6 111.2 166.5 166.6 262.4 277.3 262.4 332.7 166.5 277.3 70.6"/>
</g>
</g>
<g>
<g id="third">
<polygon class="cls-1" points="103 312.7 213.3 322.3 276.8 231.6 230 131.3 119.7 121.6 56.2 212.3 103 312.7"/>
<polygon class="cls-1" points="147.2 331 251.3 293.1 270.5 184.1 185.7 112.9 81.6 150.8 62.4 259.8 147.2 331"/>
<polygon class="cls-1" points="195.1 328.9 273.4 250.6 244.8 143.7 137.8 115 59.5 193.3 88.2 300.3 195.1 328.9"/>
<polygon class="cls-1" points="237.6 306.8 275.5 202.7 204.3 117.9 95.3 137.1 57.4 241.2 128.6 326 237.6 306.8"/>
<polygon class="cls-1" points="266.8 268.8 257.2 158.5 156.8 111.7 66.1 175.2 75.8 285.5 176.1 332.3 266.8 268.8"/>
<polygon class="cls-1" points="277.2 222 221.8 126.1 111.1 126.1 55.7 222 111.1 317.9 221.8 317.9 277.2 222"/>
<polygon class="cls-1" points="266.8 175.2 176.1 111.7 75.8 158.5 66.1 268.8 156.8 332.3 257.2 285.5 266.8 175.2"/>
<polygon class="cls-1" points="237.6 137.1 128.6 117.9 57.4 202.7 95.3 306.8 204.3 326 275.5 241.2 237.6 137.1"/>
<polygon class="cls-1" points="195.1 115 88.2 143.7 59.5 250.6 137.8 328.9 244.8 300.3 273.4 193.3 195.1 115"/>
<polygon class="cls-1" points="147.2 112.9 62.4 184.1 81.6 293.1 185.7 331 270.5 259.8 251.3 150.8 147.2 112.9"/>
<polygon class="cls-1" points="103 131.3 56.2 231.6 119.7 322.3 230 312.7 276.8 212.3 213.3 121.6 103 131.3"/>
<polygon class="cls-1" points="70.6 166.6 70.6 277.3 166.5 332.7 262.4 277.3 262.4 166.6 166.5 111.2 70.6 166.6"/>
</g>
<g id="fourth">
<polygon class="cls-1" points="103 201.7 213.3 211.3 276.8 120.6 230 20.3 119.7 10.6 56.2 101.3 103 201.7"/>
<polygon class="cls-1" points="147.2 220 251.3 182.1 270.5 73.1 185.7 1.9 81.6 39.8 62.4 148.8 147.2 220"/>
<polygon class="cls-1" points="195.1 217.9 273.4 139.6 244.8 32.7 137.8 4 59.5 82.3 88.2 189.3 195.1 217.9"/>
<polygon class="cls-1" points="237.6 195.8 275.5 91.7 204.3 6.9 95.3 26.1 57.4 130.2 128.6 215 237.6 195.8"/>
<polygon class="cls-1" points="266.8 157.8 257.2 47.5 156.8 0.7 66.1 64.2 75.8 174.5 176.1 221.3 266.8 157.8"/>
<polygon class="cls-1" points="277.2 111 221.8 15.1 111.1 15.1 55.7 111 111.1 206.9 221.8 206.9 277.2 111"/>
<polygon class="cls-1" points="266.8 64.2 176.1 0.7 75.8 47.5 66.1 157.8 156.8 221.3 257.2 174.5 266.8 64.2"/>
<polygon class="cls-1" points="237.6 26.1 128.6 6.9 57.4 91.7 95.3 195.8 204.3 215 275.5 130.2 237.6 26.1"/>
<polygon class="cls-1" points="195.1 4 88.2 32.7 59.5 139.6 137.8 217.9 244.8 189.3 273.4 82.3 195.1 4"/>
<polygon class="cls-1" points="147.2 1.9 62.4 73.1 81.6 182.1 185.7 220 270.5 148.8 251.3 39.8 147.2 1.9"/>
<polygon class="cls-1" points="103 20.3 56.2 120.6 119.7 211.3 230 201.7 276.8 101.3 213.3 10.6 103 20.3"/>
<polygon class="cls-1" points="70.6 55.6 70.6 166.3 166.5 221.7 262.4 166.3 262.4 55.6 166.5 0.2 70.6 55.6"/>
</g>
</g>
</g>
<g class="cls-2">
<text class="cls-3" transform="translate(146.4 182.2)">M</text>
</g>
</g>
</g>
</g>
</g>
</svg>
