<svg xmlns="http://www.w3.org/2000/svg" viewBox="0 0 273 261">
  <defs>
    <style>
      .cls-1 {
        fill: #261300;
      }

      .cls-2 {
        fill: #f7931e;
      }
     #m{
        animation: co 4s linear infinite alternate;
      }
      @keyframes co{
        0%{
          fill: #f7931e;
        }
        100%{
          fill: rgb(0, 141, 235);
        }
      }
    </style>
  </defs>
  <title>Adobe Logo</title>
  <g id="Layer_2" data-name="Layer 2">
    <g id="Services">
      <g id="Text">
        <g>
          <path class="cls-1" d="M10.1,9.9H262.9V251.1H10.1Z"/>
          <path class="cls-2" d="M0,0V261H273V0ZM10.1,9.9H262.9V251.1H10.1Z"/>
          <path id="m" class="cls-2" d="M96,148.7l-8.6,31.9c-.2.9-.6,1.1-1.7,1.1H68c-1.1,0-1.4-.3-1.1-1.7L99,69.8c.6-2,.9-3.8,1.1-9.2,0-.8.4-1.1.9-1.1h23.8c.8,0,1.1.2,1.4,1.1l35.9,119.7c.3.9,0,1.4-.9,1.4H141.3c-.9,0-1.4-.2-1.6-1l-9.1-32Zm30.9-16.5c-3.2-12.5-10.8-39.7-13.7-52.9H113c-2.4,13.2-8.5,35.4-13.3,52.9Zm51.5-64.1c0-7.2,5.1-11.4,11.6-11.4s11.7,4.6,11.7,11.4-4.9,11.4-11.9,11.4-11.4-4-11.4-11.4Zm1.3,24.4c0,.2,1.4,3.3,1.4,3.3h16.4c.9,0,1.4.3,1.4,1.3v86.6c0,.9-.3,1.3-1.4,1.3H180.1c-1.1,0-1.5-.5-1.5-1.4V92.5Z"/>
        </g>
      </g>
    </g>
  </g>
</svg>
