<svg xmlns="http://www.w3.org/2000/svg" viewBox="0 0 60.8 84.5">
  <defs>
    <style>
      .cls-1, .cls-10, .cls-11, .cls-12, .cls-13, .cls-14, .cls-15, .cls-16, .cls-17, .cls-18, .cls-19, .cls-2, .cls-20, .cls-21, .cls-22, .cls-23, .cls-24, .cls-25, .cls-26, .cls-27, .cls-28, .cls-29, .cls-3, .cls-30, .cls-31, .cls-32, .cls-4, .cls-5, .cls-6, .cls-7, .cls-8, .cls-9 {
        fill: none;
        stroke: #f7931e;
        stroke-miterlimit: 10;
      }

      .cls-1 {
        stroke-width: 0px;
      }

      .cls-2 {
        stroke-width: 0.01px;
      }

      .cls-3 {
        stroke-width: 0.01px;
      }

      .cls-4 {
        stroke-width: 0.01px;
      }

      .cls-5 {
        stroke-width: 0.01px;
      }

      .cls-6 {
        stroke-width: 0.01px;
      }

      .cls-7 {
        stroke-width: 0.01px;
      }

      .cls-8 {
        stroke-width: 0.01px;
      }

      .cls-9 {
        stroke-width: 0.02px;
      }

      .cls-10 {
        stroke-width: 0.02px;
      }

      .cls-11 {
        stroke-width: 0.02px;
      }

      .cls-12 {
        stroke-width: 0.03px;
      }

      .cls-13 {
        stroke-width: 0.03px;
      }

      .cls-14 {
        stroke-width: 0.04px;
      }

      .cls-15 {
        stroke-width: 0.05px;
      }

      .cls-16 {
        stroke-width: 0.05px;
      }

      .cls-17 {
        stroke-width: 0.06px;
      }

      .cls-18 {
        stroke-width: 0.07px;
      }

      .cls-19 {
        stroke-width: 0.09px;
      }

      .cls-20 {
        stroke-width: 0.1px;
      }

      .cls-21 {
        stroke-width: 0.12px;
      }

      .cls-22 {
        stroke-width: 0.14px;
      }

      .cls-23 {
        stroke-width: 0.17px;
      }

      .cls-24 {
        stroke-width: 0.2px;
      }

      .cls-25 {
        stroke-width: 0.23px;
      }

      .cls-26 {
        stroke-width: 0.27px;
      }

      .cls-27 {
        stroke-width: 0.32px;
      }

      .cls-28 {
        stroke-width: 0.38px;
      }

      .cls-29 {
        stroke-width: 0.45px;
      }

      .cls-30 {
        stroke-width: 0.53px;
      }

      .cls-31 {
        stroke-width: 0.62px;
      }

      .cls-32 {
        stroke-width: 0.73px;
      }
    </style>
  </defs>
  <title>back</title>
  <g id="Layer_2" data-name="Layer 2">
    <g id="About">
      <g id="Icons">
        <g>
          <polyline class="cls-1" points="30.6 42 30.2 42.2 30.6 42.5"/>
          <polyline class="cls-2" points="30.7 41.9 30.2 42.2 30.7 42.6"/>
          <polyline class="cls-3" points="30.7 41.9 30.2 42.2 30.7 42.6"/>
          <polyline class="cls-4" points="30.7 41.8 30.1 42.2 30.7 42.7"/>
          <polyline class="cls-5" points="30.8 41.7 30.1 42.2 30.8 42.8"/>
          <polyline class="cls-6" points="30.9 41.6 30 42.2 30.9 42.9"/>
          <polyline class="cls-7" points="30.9 41.5 29.9 42.2 30.9 43"/>
          <polyline class="cls-8" points="31 41.4 29.8 42.2 31 43.1"/>
          <polyline class="cls-9" points="31.1 41.2 29.7 42.2 31.1 43.2"/>
          <polyline class="cls-10" points="31.3 41.1 29.6 42.2 31.3 43.4"/>
          <polyline class="cls-11" points="31.4 40.9 29.4 42.2 31.4 43.6"/>
          <polyline class="cls-12" points="31.6 40.6 29.3 42.2 31.6 43.9"/>
          <polyline class="cls-13" points="31.8 40.3 29.1 42.2 31.8 44.1"/>
          <polyline class="cls-14" points="32 40 28.8 42.2 32 44.5"/>
          <polyline class="cls-15" points="32.3 39.6 28.5 42.2 32.3 44.9"/>
          <polyline class="cls-16" points="32.7 39.1 28.2 42.3 32.7 45.4"/>
          <polyline class="cls-17" points="33.1 38.6 27.8 42.3 33.1 45.9"/>
          <polyline class="cls-18" points="33.5 37.9 27.4 42.3 33.5 46.5"/>
          <polyline class="cls-19" points="34.1 37.2 26.8 42.3 34.1 47.3"/>
          <polyline class="cls-20" points="34.7 36.3 26.2 42.3 34.7 48.2"/>
          <polyline class="cls-21" points="35.5 35.2 25.4 42.3 35.5 49.3"/>
          <polyline class="cls-22" points="36.4 34 24.6 42.3 36.4 50.5"/>
          <polyline class="cls-23" points="37.4 32.5 23.5 42.3 37.4 52"/>
          <polyline class="cls-24" points="38.7 30.8 22.3 42.3 38.7 53.7"/>
          <polyline class="cls-25" points="40.1 28.8 20.9 42.3 40.1 55.7"/>
          <polyline class="cls-26" points="41.8 26.4 19.2 42.3 41.8 58.1"/>
          <polyline class="cls-27" points="43.8 23.6 17.2 42.3 43.8 60.8"/>
          <polyline class="cls-28" points="46.2 20.3 14.9 42.3 46.2 64.1"/>
          <polyline class="cls-29" points="49 16.5 12.1 42.3 49 68"/>
          <polyline class="cls-30" points="52.3 11.9 8.9 42.4 52.3 72.5"/>
          <polyline class="cls-31" points="56.1 6.6 5.1 42.4 56.1 77.9"/>
          <polyline class="cls-32" points="60.6 0.3 0.6 42.4 60.6 84.2"/>
        </g>
      </g>
    </g>
  </g>
</svg>
