<svg xmlns="http://www.w3.org/2000/svg" viewBox="0 0 289.7 33.3">
  <defs>
    <style>
      .cls-1 {
        fill: none;
        stroke: #f7931e;
        stroke-miterlimit: 10;
        stroke-width: 0.72px;
      }
    </style>
  </defs>
  <title>CSS Bar</title>
  <g id="Layer_2" data-name="Layer 2">
    <g id="Resume">
      <g id="Text">
        <g>
          <polyline class="cls-1" points="0.3 0.2 9.3 17.2 0.3 33.2"/>
          <polyline class="cls-1" points="4.3 0.2 13.3 17.2 4.3 33.2"/>
          <polyline class="cls-1" points="8.3 0.2 17.3 17.2 8.3 33.2"/>
          <polyline class="cls-1" points="12.3 0.2 21.3 17.2 12.3 33.2"/>
          <polyline class="cls-1" points="16.3 0.2 25.3 17.2 16.3 33.2"/>
          <polyline class="cls-1" points="20.3 0.2 29.3 17.2 20.3 33.2"/>
          <polyline class="cls-1" points="24.3 0.2 33.3 17.2 24.3 33.2"/>
          <polyline class="cls-1" points="28.3 0.2 37.3 17.2 28.3 33.2"/>
          <polyline class="cls-1" points="32.3 0.2 41.3 17.2 32.3 33.2"/>
          <polyline class="cls-1" points="36.3 0.2 45.3 17.2 36.3 33.2"/>
          <polyline class="cls-1" points="40.3 0.2 49.3 17.2 40.3 33.2"/>
          <polyline class="cls-1" points="44.3 0.2 53.3 17.2 44.3 33.2"/>
          <polyline class="cls-1" points="48.3 0.2 57.3 17.2 48.3 33.2"/>
          <polyline class="cls-1" points="52.3 0.2 61.3 17.2 52.3 33.2"/>
          <polyline class="cls-1" points="56.3 0.2 65.3 17.2 56.3 33.2"/>
          <polyline class="cls-1" points="60.3 0.2 69.3 17.2 60.3 33.2"/>
          <polyline class="cls-1" points="64.3 0.2 73.3 17.2 64.3 33.2"/>
          <polyline class="cls-1" points="68.3 0.2 77.3 17.2 68.3 33.2"/>
          <polyline class="cls-1" points="72.3 0.2 81.3 17.2 72.3 33.2"/>
          <polyline class="cls-1" points="76.3 0.2 85.3 17.2 76.3 33.2"/>
          <polyline class="cls-1" points="80.3 0.2 89.3 17.2 80.3 33.2"/>
          <polyline class="cls-1" points="84.3 0.2 93.3 17.2 84.3 33.2"/>
          <polyline class="cls-1" points="88.3 0.2 97.3 17.2 88.3 33.2"/>
          <polyline class="cls-1" points="92.3 0.2 101.3 17.2 92.3 33.2"/>
          <polyline class="cls-1" points="96.3 0.2 105.3 17.2 96.3 33.2"/>
          <polyline class="cls-1" points="100.3 0.2 109.3 17.2 100.3 33.2"/>
          <polyline class="cls-1" points="104.3 0.2 113.3 17.2 104.3 33.2"/>
          <polyline class="cls-1" points="108.3 0.2 117.3 17.2 108.3 33.2"/>
          <polyline class="cls-1" points="112.3 0.2 121.3 17.2 112.3 33.2"/>
          <polyline class="cls-1" points="116.3 0.2 125.3 17.2 116.3 33.2"/>
          <polyline class="cls-1" points="120.3 0.2 129.3 17.2 120.3 33.2"/>
          <polyline class="cls-1" points="124.3 0.2 133.3 17.2 124.3 33.2"/>
          <polyline class="cls-1" points="128.3 0.2 137.3 17.2 128.3 33.2"/>
          <polyline class="cls-1" points="132.3 0.2 141.3 17.2 132.3 33.2"/>
          <polyline class="cls-1" points="136.3 0.2 145.3 17.2 136.3 33.2"/>
          <polyline class="cls-1" points="140.3 0.2 149.3 17.2 140.3 33.2"/>
          <polyline class="cls-1" points="144.3 0.2 153.3 17.2 144.3 33.2"/>
          <polyline class="cls-1" points="148.3 0.2 157.3 17.2 148.3 33.2"/>
          <polyline class="cls-1" points="152.3 0.2 161.3 17.2 152.3 33.2"/>
          <polyline class="cls-1" points="156.3 0.2 165.3 17.2 156.3 33.2"/>
          <polyline class="cls-1" points="160.3 0.2 169.3 17.2 160.3 33.2"/>
          <polyline class="cls-1" points="164.3 0.2 173.3 17.2 164.3 33.2"/>
          <polyline class="cls-1" points="168.3 0.2 177.3 17.2 168.3 33.2"/>
          <polyline class="cls-1" points="172.3 0.2 181.3 17.2 172.3 33.2"/>
          <polyline class="cls-1" points="176.3 0.2 185.3 17.2 176.3 33.2"/>
          <polyline class="cls-1" points="180.3 0.2 189.3 17.2 180.3 33.2"/>
          <polyline class="cls-1" points="184.3 0.2 193.3 17.2 184.3 33.2"/>
          <polyline class="cls-1" points="188.3 0.2 197.3 17.2 188.3 33.2"/>
          <polyline class="cls-1" points="192.3 0.2 201.3 17.2 192.3 33.2"/>
          <polyline class="cls-1" points="196.3 0.2 205.3 17.2 196.3 33.2"/>
          <polyline class="cls-1" points="200.3 0.2 209.3 17.2 200.3 33.2"/>
          <polyline class="cls-1" points="204.3 0.2 213.3 17.2 204.3 33.2"/>
          <polyline class="cls-1" points="208.3 0.2 217.3 17.2 208.3 33.2"/>
          <polyline class="cls-1" points="212.3 0.2 221.3 17.2 212.3 33.2"/>
          <polyline class="cls-1" points="216.3 0.2 225.3 17.2 216.3 33.2"/>
          <polyline class="cls-1" points="220.3 0.2 229.3 17.2 220.3 33.2"/>
          <polyline class="cls-1" points="224.3 0.2 233.3 17.2 224.3 33.2"/>
          <polyline class="cls-1" points="228.3 0.2 237.3 17.2 228.3 33.2"/>
          <polyline class="cls-1" points="232.3 0.2 241.3 17.2 232.3 33.2"/>
          <polyline class="cls-1" points="236.3 0.2 245.3 17.2 236.3 33.2"/>
          <polyline class="cls-1" points="240.3 0.2 249.3 17.2 240.3 33.2"/>
          <polyline class="cls-1" points="244.3 0.2 253.3 17.2 244.3 33.2"/>
          <polyline class="cls-1" points="248.3 0.2 257.3 17.2 248.3 33.2"/>
          <polyline class="cls-1" points="252.3 0.2 261.3 17.2 252.3 33.2"/>
          <polyline class="cls-1" points="256.3 0.2 265.3 17.2 256.3 33.2"/>
          <polyline class="cls-1" points="260.3 0.2 269.3 17.2 260.3 33.2"/>
          <polyline class="cls-1" points="264.3 0.2 273.3 17.2 264.3 33.2"/>
          <polyline class="cls-1" points="268.3 0.2 277.3 17.2 268.3 33.2"/>
          <polyline class="cls-1" points="272.3 0.2 281.3 17.2 272.3 33.2"/>
          <polyline class="cls-1" points="276.3 0.2 285.3 17.2 276.3 33.2"/>
          <polyline class="cls-1" points="280.3 0.2 289.3 17.2 280.3 33.2"/>
        </g>
      </g>
    </g>
  </g>
</svg>
