<svg xmlns="http://www.w3.org/2000/svg" viewBox="0 0 60.8 84.5">
  <defs>
    <style>
      .cls-1, .cls-10, .cls-11, .cls-12, .cls-13, .cls-14, .cls-15, .cls-16, .cls-17, .cls-18, .cls-19, .cls-2, .cls-20, .cls-21, .cls-22, .cls-23, .cls-24, .cls-25, .cls-26, .cls-27, .cls-28, .cls-29, .cls-3, .cls-30, .cls-31, .cls-32, .cls-4, .cls-5, .cls-6, .cls-7, .cls-8, .cls-9 {
        fill: none;
        stroke: #f7931e;
        stroke-miterlimit: 10;
      }

      .cls-1 {
        stroke-width: 0px;
      }

      .cls-2 {
        stroke-width: 0.01px;
      }

      .cls-3 {
        stroke-width: 0.01px;
      }

      .cls-4 {
        stroke-width: 0.01px;
      }

      .cls-5 {
        stroke-width: 0.01px;
      }

      .cls-6 {
        stroke-width: 0.01px;
      }

      .cls-7 {
        stroke-width: 0.01px;
      }

      .cls-8 {
        stroke-width: 0.01px;
      }

      .cls-9 {
        stroke-width: 0.02px;
      }

      .cls-10 {
        stroke-width: 0.02px;
      }

      .cls-11 {
        stroke-width: 0.02px;
      }

      .cls-12 {
        stroke-width: 0.03px;
      }

      .cls-13 {
        stroke-width: 0.03px;
      }

      .cls-14 {
        stroke-width: 0.04px;
      }

      .cls-15 {
        stroke-width: 0.05px;
      }

      .cls-16 {
        stroke-width: 0.05px;
      }

      .cls-17 {
        stroke-width: 0.06px;
      }

      .cls-18 {
        stroke-width: 0.07px;
      }

      .cls-19 {
        stroke-width: 0.09px;
      }

      .cls-20 {
        stroke-width: 0.1px;
      }

      .cls-21 {
        stroke-width: 0.12px;
      }

      .cls-22 {
        stroke-width: 0.14px;
      }

      .cls-23 {
        stroke-width: 0.17px;
      }

      .cls-24 {
        stroke-width: 0.2px;
      }

      .cls-25 {
        stroke-width: 0.23px;
      }

      .cls-26 {
        stroke-width: 0.27px;
      }

      .cls-27 {
        stroke-width: 0.32px;
      }

      .cls-28 {
        stroke-width: 0.38px;
      }

      .cls-29 {
        stroke-width: 0.45px;
      }

      .cls-30 {
        stroke-width: 0.53px;
      }

      .cls-31 {
        stroke-width: 0.62px;
      }

      .cls-32 {
        stroke-width: 0.73px;
      }
    </style>
  </defs>
  <title>forward</title>
  <g id="Layer_2" data-name="Layer 2">
    <g id="About">
      <g id="Icons">
        <g>
          <polyline class="cls-1" points="30.2 42.5 30.6 42.2 30.2 42"/>
          <polyline class="cls-2" points="30.2 42.6 30.6 42.2 30.2 41.9"/>
          <polyline class="cls-3" points="30.2 42.6 30.7 42.2 30.2 41.9"/>
          <polyline class="cls-4" points="30.1 42.7 30.7 42.2 30.1 41.8"/>
          <polyline class="cls-5" points="30 42.8 30.8 42.2 30 41.7"/>
          <polyline class="cls-6" points="30 42.9 30.9 42.2 30 41.6"/>
          <polyline class="cls-7" points="29.9 43 30.9 42.2 29.9 41.5"/>
          <polyline class="cls-8" points="29.8 43.1 31 42.2 29.8 41.4"/>
          <polyline class="cls-9" points="29.7 43.2 31.1 42.2 29.7 41.2"/>
          <polyline class="cls-10" points="29.6 43.4 31.3 42.2 29.6 41.1"/>
          <polyline class="cls-11" points="29.4 43.6 31.4 42.2 29.4 40.9"/>
          <polyline class="cls-12" points="29.3 43.9 31.6 42.2 29.3 40.6"/>
          <polyline class="cls-13" points="29 44.1 31.8 42.2 29 40.3"/>
          <polyline class="cls-14" points="28.8 44.5 32 42.2 28.8 40"/>
          <polyline class="cls-15" points="28.5 44.9 32.3 42.2 28.5 39.6"/>
          <polyline class="cls-16" points="28.2 45.4 32.6 42.2 28.2 39.1"/>
          <polyline class="cls-17" points="27.8 45.9 33 42.2 27.8 38.6"/>
          <polyline class="cls-18" points="27.3 46.5 33.5 42.2 27.3 37.9"/>
          <polyline class="cls-19" points="26.8 47.3 34 42.2 26.8 37.2"/>
          <polyline class="cls-20" points="26.1 48.2 34.7 42.2 26.1 36.3"/>
          <polyline class="cls-21" points="25.4 49.3 35.4 42.2 25.4 35.2"/>
          <polyline class="cls-22" points="24.5 50.5 36.3 42.2 24.5 34"/>
          <polyline class="cls-23" points="23.4 52 37.3 42.2 23.4 32.5"/>
          <polyline class="cls-24" points="22.2 53.7 38.5 42.2 22.2 30.8"/>
          <polyline class="cls-25" points="20.7 55.7 40 42.2 20.7 28.8"/>
          <polyline class="cls-26" points="19 58.1 41.7 42.2 19 26.4"/>
          <polyline class="cls-27" points="17 60.8 43.6 42.2 17 23.6"/>
          <polyline class="cls-28" points="14.7 64.1 46 42.1 14.7 20.3"/>
          <polyline class="cls-29" points="11.9 68 48.7 42.1 11.9 16.5"/>
          <polyline class="cls-30" points="8.6 72.5 51.9 42.1 8.6 11.9"/>
          <polyline class="cls-31" points="4.7 77.9 55.7 42.1 4.7 6.6"/>
          <polyline class="cls-32" points="0.2 84.2 60.2 42.1 0.2 0.3"/>
        </g>
      </g>
    </g>
  </g>
</svg>
