<svg xmlns="http://www.w3.org/2000/svg" viewBox="0 0 273 261">
  <defs>
    <style>
      .cls-1 {
        fill: #f7931e;
      }

      .cls-2 {
        fill: #fff;
      }

      .cls-3 {
        fill: #595959;
      }

      .cls-4 {
        fill: #c7c7c7;
      }
      #wheel{
        animation: rotate 6s linear  infinite;
        transform-origin: 69.85px 194.2px;
      }
      #wheel2{
        animation: rotate2 8s linear  infinite;
        transform-origin: 176.5px 92.25px;
      }
      @keyframes rotate{
        0%{
          transform:rotate(0deg)
        }
        100%{
          transform:rotate(360deg)
        }
      }
      @keyframes rotate2{
        0%{
          transform:rotate(360deg)
        }
        100%{
          transform:rotate(0deg)
        }
      }
    </style>
  </defs>
  <title>Mechanical Desing</title>
  <g id="Layer_2" data-name="Layer 2">
    <g id="Services">
      <g id="Text">
        <g>
          <rect class="cls-1" width="273" height="261"/>
          <g id="wheel">
            <path class="cls-2" d="M106.6,173.5l8.5-8.1L100,151l-8.5,8.1a46,46,0,0,0-11-4.4V143.2H59.2v11.5a46,46,0,0,0-11,4.4L39.7,151,24.6,165.4l8.5,8.1A40.9,40.9,0,0,0,28.5,184h-12v20.4h12a38.1,38.1,0,0,0,4.6,10.5l-8.5,8.2,15.1,14.4,8.5-8.2a39,39,0,0,0,11,4.4v11.5H80.5V233.7a39,39,0,0,0,11-4.4l8.5,8.2,15.1-14.4-8.5-8.2a38.1,38.1,0,0,0,4.6-10.5h12V184h-12A40.9,40.9,0,0,0,106.6,173.5ZM69.9,211.2c-9.9,0-17.8-7.6-17.8-17s7.9-17,17.8-17,17.7,7.6,17.7,17S79.7,211.2,69.9,211.2Z"/>
            <path class="cls-3" d="M123.2,204.4V184h-12a40.9,40.9,0,0,0-4.6-10.5l8.5-8.1L100,151l-8.5,8.1a46,46,0,0,0-11-4.4V143.2H69.8v34h0c9.9,0,17.8,7.6,17.8,17s-7.9,17-17.8,17h0v34H80.5V233.7a39,39,0,0,0,11-4.4l8.5,8.2,15.1-14.4-8.5-8.2a38.1,38.1,0,0,0,4.6-10.5Z"/>
          </g>
          <g id="wheel2">
            <path class="cls-4" d="M256.5,107.6V77h-18a63.7,63.7,0,0,0-6.9-15.8L244.4,49,221.7,27.4,209,39.6A66.2,66.2,0,0,0,192.5,33V15.8h-32V33A66.2,66.2,0,0,0,144,39.6L131.2,27.4,108.6,49l12.8,12.2A60.2,60.2,0,0,0,114.5,77h-18v30.6h18a58.1,58.1,0,0,0,6.9,15.7l-12.8,12.2,22.6,21.6L144,145a66,66,0,0,0,16.5,6.5v17.2h32V151.5A66,66,0,0,0,209,145l12.7,12.1,22.7-21.6-12.8-12.2a58.1,58.1,0,0,0,6.9-15.7Zm-80,10.2c-14.7,0-26.7-11.5-26.7-25.5s12-25.5,26.7-25.5,26.7,11.4,26.7,25.5S191.2,117.8,176.5,117.8Z"/>
            <path class="cls-2" d="M256.5,107.6V77h-18a63.7,63.7,0,0,0-6.9-15.8L244.4,49,221.7,27.4,209,39.6A66.2,66.2,0,0,0,192.5,33V15.8h-16v51c14.7,0,26.7,11.4,26.7,25.5s-12,25.5-26.7,25.5v50.9h16V151.5A66,66,0,0,0,209,145l12.7,12.1,22.7-21.6-12.8-12.2a58.1,58.1,0,0,0,6.9-15.7Z"/>
          </g>
        </g>
      </g>
    </g>
  </g>
</svg>
