<svg xmlns="http://www.w3.org/2000/svg" viewBox="0 0 91.2 91.5">
  <defs>
    <style>
      .cls-1, .cls-2 {
        fill: none;
        stroke-miterlimit: 10;
        stroke-width: 0.5px;
      }

      .cls-1 {
        stroke: #f7931e;
      }

      .cls-2 {
        stroke: #fff;
      }
    </style>
  </defs>
  <title>Menu Icon_1</title>
  <g id="Layer_2" data-name="Layer 2">
    <g id="Hero">
      <g id="Final">
        <g id="Menu">
          <g id="Icon">
            <g>
              <polygon class="cls-1" points="45.6 65.9 25.5 45.7 45.6 25.6 65.7 45.7 45.6 65.9"/>
              <rect class="cls-2" x="31.4" y="31.5" width="28.4" height="28.47"/>
            </g>
            <g>
              <polygon class="cls-1" points="45.6 69.4 22 45.7 45.6 22 69.2 45.7 45.6 69.4"/>
              <rect class="cls-2" x="28.9" y="29" width="33.4" height="33.5"/>
            </g>
            <g>
              <polygon class="cls-1" points="45.6 73.6 17.8 45.7 45.6 17.9 73.4 45.7 45.6 73.6"/>
              <rect class="cls-2" x="26" y="26" width="39.3" height="39.41"/>
            </g>
            <g>
              <polygon class="cls-1" points="45.6 78.5 12.9 45.7 45.6 12.9 78.3 45.7 45.6 78.5"/>
              <rect class="cls-2" x="22.5" y="22.5" width="46.2" height="46.37"/>
            </g>
            <g>
              <polygon class="cls-1" points="45.6 84.3 7.1 45.7 45.6 7.2 84.1 45.7 45.6 84.3"/>
              <rect class="cls-2" x="18.4" y="18.5" width="54.4" height="54.55"/>
            </g>
            <g>
              <polygon class="cls-1" points="45.6 91.1 0.4 45.7 45.6 0.4 90.9 45.7 45.6 91.1"/>
              <rect class="cls-2" x="13.6" y="13.6" width="64" height="64.17"/>
            </g>
          </g>
        </g>
      </g>
    </g>
  </g>
</svg>
