<svg xmlns="http://www.w3.org/2000/svg" xmlns:xlink="http://www.w3.org/1999/xlink" viewBox="0 0 1092 422.5">
  <defs>
    <style>
      .cls-1 {
        fill: url(#linear-gradient);
      }

      .cls-2 {
        fill: url(#linear-gradient-2);
      }

      .cls-3 {
        fill: url(#linear-gradient-3);
      }

      .cls-4 {
        fill: url(#linear-gradient-4);
      }

      .cls-5 {
        fill: url(#linear-gradient-5);
      }

      .cls-6 {
        fill: url(#linear-gradient-6);
      }

      .cls-7 {
        fill: url(#linear-gradient-7);
      }

      .cls-8 {
        fill: url(#linear-gradient-8);
      }

      .cls-9 {
        fill: url(#linear-gradient-9);
      }

      .cls-10 {
        fill: url(#linear-gradient-10);
      }

      .cls-11 {
        fill: url(#linear-gradient-11);
      }

      .cls-12 {
        fill: url(#linear-gradient-12);
      }

      .cls-13 {
        fill: url(#linear-gradient-13);
      }

      .cls-14 {
        fill: url(#linear-gradient-14);
      }

      .cls-15 {
        fill: url(#linear-gradient-15);
      }

      .cls-16 {
        fill: url(#linear-gradient-16);
      }

      .cls-17 {
        fill: url(#linear-gradient-17);
      }

      .cls-18 {
        fill: url(#linear-gradient-18);
      }

      .cls-19 {
        fill: url(#linear-gradient-19);
      }

      .cls-20 {
        fill: url(#linear-gradient-20);
      }

      .cls-21 {
        fill: url(#linear-gradient-21);
      }

      .cls-22 {
        fill: url(#linear-gradient-22);
      }

      .cls-23 {
        fill: url(#linear-gradient-23);
      }

      .cls-24 {
        fill: url(#linear-gradient-24);
      }

      .cls-25 {
        fill: url(#linear-gradient-25);
      }

      .cls-26 {
        fill: url(#linear-gradient-26);
      }

      .cls-27 {
        fill: url(#linear-gradient-27);
      }

      .cls-28 {
        fill: url(#linear-gradient-28);
      }
    </style>
    <linearGradient id="linear-gradient" x1="1044.75" y1="274.62" x2="1044.91" y2="274.62" gradientUnits="userSpaceOnUse">
      <stop offset="0.12" stop-color="#e37e15"/>
      <stop offset="0.27" stop-color="#e16b14"/>
      <stop offset="0.57" stop-color="#de4d14"/>
      <stop offset="0.82" stop-color="#dc3b13"/>
      <stop offset="1" stop-color="#db3413"/>
    </linearGradient>
    <linearGradient id="linear-gradient-2" x1="1066.86" y1="285.62" x2="1066.92" y2="285.62" xlink:href="#linear-gradient"/>
    <linearGradient id="linear-gradient-3" x1="997.88" y1="242.25" x2="997.95" y2="242.25" xlink:href="#linear-gradient"/>
    <linearGradient id="linear-gradient-4" x1="1033.13" y1="269.08" x2="1033.2" y2="269.08" xlink:href="#linear-gradient"/>
    <linearGradient id="linear-gradient-5" x1="477.14" y1="254.54" x2="1091.52" y2="254.54" xlink:href="#linear-gradient"/>
    <linearGradient id="linear-gradient-6" x1="966.09" y1="296.76" x2="1051.56" y2="296.76" xlink:href="#linear-gradient"/>
    <linearGradient id="linear-gradient-7" x1="361.19" y1="173.65" x2="764.82" y2="173.65" xlink:href="#linear-gradient"/>
    <linearGradient id="linear-gradient-8" x1="622.82" y1="137.01" x2="999.69" y2="137.01" gradientUnits="userSpaceOnUse">
      <stop offset="0" stop-color="#831d12"/>
      <stop offset="0.41" stop-color="#4c1d17"/>
    </linearGradient>
    <linearGradient id="linear-gradient-9" x1="852.48" y1="95.73" x2="1024.84" y2="95.73" gradientUnits="userSpaceOnUse">
      <stop offset="0.25" stop-color="#831d12"/>
      <stop offset="0.94" stop-color="#4c1d17"/>
    </linearGradient>
    <linearGradient id="linear-gradient-10" x1="862.37" y1="62.29" x2="906.56" y2="62.29" gradientUnits="userSpaceOnUse">
      <stop offset="0" stop-color="#831d12"/>
      <stop offset="1" stop-color="#4c1d17"/>
    </linearGradient>
    <linearGradient id="linear-gradient-11" x1="886.37" y1="71.21" x2="886.38" y2="71.21" xlink:href="#linear-gradient-10"/>
    <linearGradient id="linear-gradient-12" x1="957.56" y1="51.15" x2="986.03" y2="51.15" xlink:href="#linear-gradient-10"/>
    <linearGradient id="linear-gradient-13" x1="974.14" y1="33.44" x2="974.2" y2="33.44" xlink:href="#linear-gradient-10"/>
    <linearGradient id="linear-gradient-14" x1="846.57" y1="99.91" x2="864.2" y2="99.91" xlink:href="#linear-gradient-10"/>
    <linearGradient id="linear-gradient-15" x1="846.85" y1="44.78" x2="948.45" y2="44.78" gradientUnits="userSpaceOnUse">
      <stop offset="0.17" stop-color="#831d12"/>
      <stop offset="1" stop-color="#4c1d17"/>
    </linearGradient>
    <linearGradient id="linear-gradient-16" x1="888.72" y1="49.54" x2="888.82" y2="49.54" xlink:href="#linear-gradient-10"/>
    <linearGradient id="linear-gradient-17" y1="84.6" x2="603.53" y2="84.6" gradientUnits="userSpaceOnUse">
      <stop offset="0.12" stop-color="#903327"/>
      <stop offset="0.49" stop-color="#811d12"/>
      <stop offset="1" stop-color="#4c1d17"/>
    </linearGradient>
    <linearGradient id="linear-gradient-18" x1="407.85" y1="37.07" x2="408.1" y2="37.07" xlink:href="#linear-gradient-10"/>
    <linearGradient id="linear-gradient-19" x1="460.36" y1="89.44" x2="723.23" y2="89.44" xlink:href="#linear-gradient-10"/>
    <linearGradient id="linear-gradient-20" x1="856.88" y1="174.95" x2="867.85" y2="174.95" xlink:href="#linear-gradient-10"/>
    <linearGradient id="linear-gradient-21" x1="73.3" y1="241.11" x2="436.46" y2="241.11" xlink:href="#linear-gradient"/>
    <linearGradient id="linear-gradient-22" x1="157.57" y1="374.55" x2="301.85" y2="291.25" gradientUnits="userSpaceOnUse">
      <stop offset="0" stop-color="#861c13"/>
      <stop offset="0.21" stop-color="#811b12"/>
      <stop offset="0.46" stop-color="#721811"/>
      <stop offset="0.73" stop-color="#5a140e"/>
      <stop offset="1" stop-color="#3a0e0b"/>
    </linearGradient>
    <linearGradient id="linear-gradient-23" x1="268.76" y1="361.18" x2="413.05" y2="277.88" gradientUnits="userSpaceOnUse">
      <stop offset="0" stop-color="#861c13"/>
      <stop offset="0.28" stop-color="#751911"/>
      <stop offset="0.82" stop-color="#49110d"/>
      <stop offset="1" stop-color="#3a0e0b"/>
    </linearGradient>
    <linearGradient id="linear-gradient-24" x1="397.16" y1="374.55" x2="541.44" y2="291.25" gradientUnits="userSpaceOnUse">
      <stop offset="0" stop-color="#861c13"/>
      <stop offset="0.21" stop-color="#811b12"/>
      <stop offset="0.46" stop-color="#721811"/>
      <stop offset="0.73" stop-color="#59140e"/>
      <stop offset="1" stop-color="#3a0e0b"/>
    </linearGradient>
    <linearGradient id="linear-gradient-25" x1="516.07" y1="374.55" x2="660.36" y2="291.25" xlink:href="#linear-gradient-24"/>
    <linearGradient id="linear-gradient-26" x1="634.69" y1="416.23" x2="732.32" y2="247.14" gradientUnits="userSpaceOnUse">
      <stop offset="0" stop-color="#f37a28"/>
      <stop offset="0.27" stop-color="#ef7729"/>
      <stop offset="1" stop-color="#ea722b"/>
    </linearGradient>
    <linearGradient id="linear-gradient-27" x1="690.59" y1="374.55" x2="834.87" y2="291.25" gradientUnits="userSpaceOnUse">
      <stop offset="0" stop-color="#f07824"/>
      <stop offset="0.32" stop-color="#f47322"/>
      <stop offset="1" stop-color="#f86e20"/>
    </linearGradient>
    <linearGradient id="linear-gradient-28" x1="802.52" y1="361.18" x2="946.8" y2="277.88" gradientUnits="userSpaceOnUse">
      <stop offset="0" stop-color="#f57b22"/>
      <stop offset="0.41" stop-color="#ee7424"/>
      <stop offset="0.99" stop-color="#dc622b"/>
      <stop offset="1" stop-color="#dc622b"/>
    </linearGradient>
  </defs>
  <title>Asset 2</title>
  <g id="Layer_2" data-name="Layer 2">
    <g id="Layer_1-2" data-name="Layer 1">
      <g>
        <g>
          <path class="cls-1" d="M1044.9,274.7h0Z"/>
          <path class="cls-2" d="M1066.9,285.7h0Z"/>
          <path class="cls-3" d="M997.9,242.2h0Z"/>
          <path class="cls-4" d="M1033.2,269.2V269h-.1Z"/>
          <path class="cls-5" d="M1032.4,268.4a.8.8,0,0,1,.8.6h.1c2.1.8,4.4,1.1,5.9,3.1h-.1l1.1.2a1.8,1.8,0,0,1,1.8.8.8.8,0,0,1,.8.7v-.2c.9.1,1.8.1,2.1,1.1a6.7,6.7,0,0,1,2.4.7l17.5,8.5a3.4,3.4,0,0,1,2.1,1.8,1.3,1.3,0,0,1,1.6.8v-.2c7.7,3.9,15,8.3,22.9,13.2-1-3.4-3.1-5.2-5.1-6.8-8.7-7.5-17.6-14.8-27.6-20.7l-7.2-4.2a250.1,250.1,0,0,0-24.6-12.9c-9-4.2-18.2-7.8-27.3-11.7a1.2,1.2,0,0,1-1.8-.8,10.5,10.5,0,0,1-5.2-1.2,89.4,89.4,0,0,0-9.8-3.7c-8.7-2.9-17.6-5-26.4-7.5s-15.7-3.9-23.6-5.3c-10.4-1.9-20.8-3.8-31.3-4.9-3-.4-6.2-.3-9-1.8-3.5,1-6.9.1-10.2-.8-3.7.6-7.4-.3-11.1-.6-10.7-.7-21.4-1.5-32.1-1.7-7.9-.2-15.8-1-23.6-.7a14.6,14.6,0,0,1-2.2-.3,3.9,3.9,0,0,1-2.8.6H790.2a49.3,49.3,0,0,1-5.4-.5c-2.7.2-5.3.7-7.9-.4-1,1.1-2.4.7-3.6.7-5.1.1-10.2,0-15.4.2l-30,1.4-23.6,1.1-40.6,2c-16.5.7-33,1.9-49.5,3-8.6.6-17.2.9-25.8,1.3l-43.5,2a12.1,12.1,0,0,1-3.8-.1,5.7,5.7,0,0,1-2.6,0c-4.2.6-8.4-.2-12.7-.7a134.2,134.2,0,0,1-34.7-7.8,49.4,49.4,0,0,1-10.2-5.3,7.1,7.1,0,0,0-3.8-1.5,17,17,0,0,1,.4,2.2c1.5,1.1,2.2,2.9,3.3,4.3,6.3,8,14.5,13.1,24,16.3a128.8,128.8,0,0,0,28.1,5.8,504.5,504.5,0,0,0,52.1,2.3c15.8-.2,31.6-.9,47.3-2.1l24.6-1.5,35.1-2.3,24.2-1.6,46.9-3.3c5.9-.4,11.7-1.3,17.6-.9a6.6,6.6,0,0,1,3.1-.3,4.7,4.7,0,0,1,3.3-.2,32.1,32.1,0,0,1,7.6-.4,1.8,1.8,0,0,1,2-.2,23.4,23.4,0,0,1,7-.5,4.4,4.4,0,0,1,3.2-.1,38.7,38.7,0,0,1,9.6-.5,4,4,0,0,1,3.2-.1,109.5,109.5,0,0,1,18.1-.1,1.6,1.6,0,0,1,1.5.3,9.1,9.1,0,0,1,3.3,0,.7.7,0,0,1,1.1,0,84.7,84.7,0,0,1,11.3.7h2.5a91,91,0,0,1,10.4.8,3.4,3.4,0,0,1,2.6.2,44.3,44.3,0,0,1,10.2,1.1,4.2,4.2,0,0,1,3.1.4,7.4,7.4,0,0,1,3.3.3,1.1,1.1,0,0,1,1.3.2,386,386,0,0,1,51.1,8.4c16.4,3.6,32.6,7.5,48.6,12.8,7.6,2.6,15.3,5.1,22.9,8.1Z"/>
          <path class="cls-6" d="M1089.5,307.6l-13.6-9.9a3.2,3.2,0,0,1-1.8-1.2l-.6-.4a1.6,1.6,0,0,1-1.3-.9,3.7,3.7,0,0,1-2.6-1.5,4.1,4.1,0,0,1-2.5-1.3,1.8,1.8,0,0,1-1.4-.6,6,6,0,0,1-2.5-1.3,3.3,3.3,0,0,1-2.1-1.2,1.3,1.3,0,0,1-1.2-.5,60.2,60.2,0,0,1-9-4,2.9,2.9,0,0,1-2.5-1,3.5,3.5,0,0,1-1.8-.5,37.8,37.8,0,0,1-6-1.7l-1.3-.4a32.2,32.2,0,0,1-6.1-1.6h-1.4l-6.7-.3a118.4,118.4,0,0,0-16.8,1c-.7.1-1.4.2-1.6.8a1.6,1.6,0,0,0,.6,2,3.9,3.9,0,0,0,1,.8c11.8,9,23.7,17.6,37.5,23.5,2,.9,3.9,2,5.9,3l8.3,2.5a2.8,2.8,0,0,1,2.3.5,4.8,4.8,0,0,1,1.2,0c7.5,2,15,.6,22.5.4a7.6,7.6,0,0,0,2.5-.6c1.3-.5,3.1-.8,3.5-2.4S1090.6,308.4,1089.5,307.6Z"/>
        </g>
        <path class="cls-7" d="M763.1,201.4a226.8,226.8,0,0,0-26.8-19.9l-8.6-5.5a20.3,20.3,0,0,1-3.9-1.4c-13.3-7.3-27.3-12.7-41.7-17.6a16.2,16.2,0,0,1-4-1.9c-1.4.2-2.7-.5-4-.9-9.6-2.8-19.3-5.3-29.1-7.3h-1.9a2.7,2.7,0,0,0-1.5-1.1c-5.1-.7-10-2.4-15.1-2.7l-.8.5h-4.4a3.2,3.2,0,0,0-2.7-.3,44.6,44.6,0,0,0-8.2-.4h0a1.7,1.7,0,0,0-1.4-.3c-1.8-.4-3.5-1.4-5.5-1.5s-6.3-.1-9.5-.2a117.9,117.9,0,0,0-19.7.1c-3.2.3-6.4,0-9.5.4h0l-4.9-.2a.9.9,0,0,1-1,1,36.8,36.8,0,0,1-5.7.6c-6.6.3-13.2.4-19.8.9s-12.1,1.3-18.1,2.2c-11.8,1.6-23.3,4.1-35,6.3-4.7.9-9.4,1.5-14.1,2.5-7.9,1.8-15.8,3.5-23.6,5.7s-14.3,3.8-21.3,5.8c-5.1,1.4-10,3.2-15,4.7s-10.5,3.4-15.7,5.2-11.5,4.1-17,6.5c-3.3,1.4-6.8,1.9-9.9,3.7l-1.2.5c-.7.4-1.5.7-1.3,1.6s1.3,1.1,2.1,1c3.9-.7,7.8-1.3,11.6-2.2,9.5-2.3,19-4,28.6-6l17.2-3.5a5.5,5.5,0,0,1,3.1-.1l1.5-.2c1-1,2.4-1,3.6-1.3,8.9-2.3,18.2-3.4,27.3-5,13.9-2.4,27.9-4.6,41.9-6.9,9.2-1.5,18.6-1.8,27.9-2.8a8.4,8.4,0,0,1,3.5.2,18,18,0,0,1,4-.3c4.2-1,8.5-.7,12.7-.3h2.1c.3-.2.5-.5.8-.5,4.3-.3,8.7-.8,13,0l3.6-.3a20.4,20.4,0,0,1,10.4,0l2.8.2a4.1,4.1,0,0,1,3.6.4,13.9,13.9,0,0,1,4.1.4,1.8,1.8,0,0,1,2.3.3h1.6a4.2,4.2,0,0,1,3.6.5,9,9,0,0,1,4,.5.7.7,0,0,1,1.1.2l2.1.3a1.4,1.4,0,0,1,1.7.3l1.5.3a2.1,2.1,0,0,1,2.4.4l1.4.3a4.2,4.2,0,0,1,4,1l1.3.3c.8-.5,1.6.2,2.4.2h0a.6.6,0,0,1-.1.4l2.1.6c1.7-.4,3.1.8,4.8.8a8.7,8.7,0,0,1,2.3.1,8.7,8.7,0,0,0-2.3-.1,7.2,7.2,0,0,0,3.5,1.4l2.4,1.2h0a4.3,4.3,0,0,0-.1.5c2,1.5,4.5,1.6,6.7,2.6h.3a2.3,2.3,0,0,0,1.7.7h.1a1.8,1.8,0,0,0,1.7.9,4.3,4.3,0,0,0,2.6,1.5l.6.2a3.5,3.5,0,0,0,1.9,1.2l.6.3a.5.5,0,0,0,.5.3,2.8,2.8,0,0,0,1.5.8l13,8.6c9.8,6.9,20.2,12.2,32,14.7s24.4,5,37,4.5c6.5-.2,12.9-.7,19.4-1.1l16.6-.8A4.3,4.3,0,0,0,763.1,201.4Z"/>
        <g>
          <path class="cls-8" d="M989.7,236.4c-4.3-1.9-7.5-5-10.4-8.6a31.3,31.3,0,0,0-5.5-5.4c-4.4-3.3-9.1-6.1-13.8-9.1a126.9,126.9,0,0,0-23.8-12.1,33.8,33.8,0,0,1-8.3-4.1,1.9,1.9,0,0,1-1.8-1,6.3,6.3,0,0,1-3.4-2.3h0a1.5,1.5,0,0,1-1.1-.8A31.5,31.5,0,0,1,911.1,178c-1.5-2.5-.9-4.9.5-7.2s3.7-5.4,5.3-8.2a55.2,55.2,0,0,0,7.5-22.2v-3.2A7.5,7.5,0,0,1,923,134a10.5,10.5,0,0,1-.8-1.1,3.3,3.3,0,0,1-2.1-1.1h0c-1.5,1.1-3.3,1.4-5,1.9-4.5,1.5-8.4,3.9-12.6,6s-4.6,6.7-2.8,10l1.5,2,3.2.3c.7-1.5,2.3-1.8,3.5-2.6s1.6-.2,1.6,1a8.9,8.9,0,0,1-1.8,5,47.6,47.6,0,0,1-4.9,6.2c-1.2,1.1-2.1,2.4-1.2,4.2l1.5.9a14.2,14.2,0,0,0,5-.3,4.9,4.9,0,0,1-1.1,4.1c-3.2,5-6,10.2-7.3,16.1a18.7,18.7,0,0,0,.8,11.9c.2.5.3,1.1,1,1.2s0-2.6-.1-3.8a22.7,22.7,0,0,1,1.6-10c.5-1.3,1.3-1.5,2.5-1.1s3.5,2.8,2.6,4.7c-1.8,3.6-2.1,7.6-2.9,11.4-.3,1.4-.3,2.5-2.1,2.8s-1.8,1.4-2.5,2.3a1.9,1.9,0,0,1-2.8.4c-1.1-.7-3-.9-2.7-3,.8-4.8-.1-9.5-1.1-14.2s-1.2-6.9-.2-10.4a6.2,6.2,0,0,1,.4-3.8,1.8,1.8,0,0,1,0-1.9,1.4,1.4,0,0,1,.4-2.2c.1-.3.1-.7.2-1.1a3.9,3.9,0,0,1,.1-2.6c-2,0-1.9,1.7-2.2,2.9s-.3,2.8-1.8,3.6-.1.4-.2.6,0,3-1.7,3.9a4.4,4.4,0,0,1-1.3,2.4,2,2,0,0,1-1,2.7c-.7.3-1.3.2-1.3-.8-1.8-5.6-2.4-11.1-.1-16.8a64.3,64.3,0,0,0,3.8-15.1c-.9-1.2-1.7-2.6-3.2-3.1a1.6,1.6,0,0,1-1.7-.5l-1-.2c-1.9.5-3.7.8-5.4-.4h-1.1a11.4,11.4,0,0,1-5.8-.5c-.6-.1-1.4-.3-1.2-1.1a1.1,1.1,0,0,1,1.3-.7,21.5,21.5,0,0,0,6.2-.7c3.2-2.6,3.8-4.4,2.6-8.1a22.1,22.1,0,0,0-3.3-6.5c-2.2-3-5.2-3.8-8.7-2.6a6.2,6.2,0,0,1-6.4-1.7c-1.7-2-.6-3.5.5-5.2s1.2-4.2-.7-6.3l-1.8-1.9a9.1,9.1,0,0,0-4.7-2.6c-1.7-.4-2.8.5-4,1.4l-.6.3c-1.7.5-3.7-1.1-3.1-2.8s-.4-4.3-2.1-5.9a54.3,54.3,0,0,0-10.3-7.5A103.8,103.8,0,0,1,811.5,76a5.4,5.4,0,0,1-2.5-2.2,15.5,15.5,0,0,1-2.8-2.4,6.4,6.4,0,0,1-3.1-2h0l-2.1-.7c-8.1-3.3-14-1.9-19.9,4.5L777,77.7c-1.3,1.3-2.1,1.3-3.1,0-2.3-3.3-2.9-7.1-3.1-11-.2-1.9,2-2.7,3.6-1.6,4.1,2.7,6.4,2.3,9.4-1.6.9-1.1,1.7-1.3,2.7-.5l1.5,1.2a3.2,3.2,0,0,0,3.9-.2,5.8,5.8,0,0,0,1.2-1c2.2-2.6,4.9-2.8,7.8-1.7a11.3,11.3,0,0,0,4.4,1,37.2,37.2,0,0,0-5.5-6.4c-1.4-1.3-2.7-2.9-4.8-3.4a5.5,5.5,0,0,0-3.5-1.4c-.1-.2-.2-.3-.4-.2a4.2,4.2,0,0,1-.2-2.7h0a3,3,0,0,0,1.9-1.9,2.3,2.3,0,0,0-1.3.7,2.3,2.3,0,0,1,1.3-.7l.7-.7c1-.2,1.5-1,2-1.8a3.3,3.3,0,0,0,1.8-1.7,2.2,2.2,0,0,0,2.3-1.6.2.2,0,0,0,.2-.2,1.8,1.8,0,0,0,1.4-1l.7-.6a1.1,1.1,0,0,0,1.3-.6l.6-.3h0a4.4,4.4,0,0,0,1.5-.5,28.3,28.3,0,0,1,23.1-2.5c1.9.6,3.8,1.5,6.2,1.5a3.8,3.8,0,0,0-2.6-2.5A58.9,58.9,0,0,0,821.2,31a60,60,0,0,0-21.9,2.2,1.1,1.1,0,0,1-1.3.4l-13.8,7.2a12.7,12.7,0,0,1-5,1.9,9.4,9.4,0,0,1-2.8,1.5c-7.6,2.9-15.4,5.4-23.2,8a134.4,134.4,0,0,1-15.1,4c-5,1.1-10.1,1.6-15.2,2.5-14.2,2.7-28.5,1.7-42.6-.6A129.2,129.2,0,0,1,652.4,50c-9.2-3.7-18.1-8-26.1-14a5.8,5.8,0,0,0-3.5-1.5c7,7.2,14.1,14.3,21.7,20.8S661.3,68.1,671.2,72a81.6,81.6,0,0,0,18.3,4.5c3.7.4,7.4,1.3,11.1.8,0-.2-.1-.3-.1-.5a4.3,4.3,0,0,1-.2-1.1,4.3,4.3,0,0,0,.2,1.1c0,.2.1.3.1.5a2.5,2.5,0,0,0,1.9.1,4.3,4.3,0,0,1,.9-2.6,2.3,2.3,0,0,1,.7-.7l1.2-1-1.2,1a2.3,2.3,0,0,0-.7.7,4.3,4.3,0,0,0-.9,2.6c1.5.3,3,.8,4.5.1a4.6,4.6,0,0,0,2.6.1,3.8,3.8,0,0,1,.9-.9c.3-.1.5-.2.7-.1s-.4,0-.7.1a3.8,3.8,0,0,0-.9.9,2.4,2.4,0,0,0,2.6,0h1.2A2.9,2.9,0,0,1,715,77a2.9,2.9,0,0,0-1.6.6,3.3,3.3,0,0,0,3.2,0,14.6,14.6,0,0,0,5.1,0h0c.2,2-1.3,2.8-2.7,3.5a51.6,51.6,0,0,1-18,5.5,78,78,0,0,1-44.2-8.8,114.9,114.9,0,0,1-26.3-19.1c-.7-.7-1.2-1.8-2.5-1.8.3,2.2.2,2.2,1.4,3.7,10.2,13.4,21.9,25.1,36.3,33.9a50.4,50.4,0,0,0,23.2,7.4c6.6.5,13-.6,19.5-.9a6.7,6.7,0,0,0,1.9-.5,12.3,12.3,0,0,0,6.3-.5c3.1-.9,3.6-.4,4,2.9v1.2c.3,1.5,1.1,2.4,2.6,2.4s5.8-.3,8.6-.6,1.5-1.4,1.5-2.5-1-2.9-2.2-4.1-1-.9-.7-1.6,1.1-.5,1.7-.6l4-.8c2.3-.4,3.2.2,3.6,2.4a10.4,10.4,0,0,0,11.1,8.9l3.1-.2c1.8.1,2.6,1,2.1,2.7a34.6,34.6,0,0,0-1.4,5.3c-.5,5.3,2.8,8.8,8.2,8.6a6.2,6.2,0,0,0,5.2-3.1,19.7,19.7,0,0,0,2.1-5c.1-.6.2-1.4,1-1.5s1.1.6,1.5,1.2a13.2,13.2,0,0,1,1.8,4.4,2.5,2.5,0,0,1-1,3.1c-.8.6-1.5,1.4-2.4,2s-1.7,2.3-.9,3.8a63,63,0,0,0,6.9,10.7c.9,1.1,2.1,2.1,1.3,3.7s-2.2,3.9-4.6,4.5a.8.8,0,0,1-1.1-.3c-.3-.4-.1-.8.1-1.2l1.5-2.8a3.7,3.7,0,0,0,.5-2.5c-.7-3.5-5.4-6.8-9-6.3a5.6,5.6,0,0,0-2.6,1.7c-1.5,1.2-2.9.9-3.3-1.1-1.1-5.1-4.7-7.6-9.2-9.4a4.3,4.3,0,0,0-4.7.7,29.5,29.5,0,0,0-5.5,6.2c-1.3,1.6-.9,3.6.1,5.4s1,1.7,1.3,2.5a2,2,0,0,1-1.1,2.9c-1.2.5-1.9-.1-1.8-1.5s-.9-4.9-3.7-5.3-3.4-1.3-4-3.6-5.4-6-8.5-5.8a4.8,4.8,0,0,0-3.8,2,6.1,6.1,0,0,0-1.2,1.6c-1,3.2-3.4,3.5-6.3,3.2-6.4-.7-12.2-3.2-17.9-5.7a43.7,43.7,0,0,0-9.2-3.4,7.7,7.7,0,0,0,2.8,4.4,66.8,66.8,0,0,0,13,9.3,56.7,56.7,0,0,0,14.4,5.9,65.7,65.7,0,0,1,10.6,4.4,33.8,33.8,0,0,0,21.9,2.6c2.2-.5,4.4-.7,6.6-1.1a9.9,9.9,0,0,0,4.2-1.3c.9-.6,1.8-.9,2.5.2a2.1,2.1,0,0,1-.9,3c-2.6,1.2-5.1,2.7-8,3l-2.5.5c-1.4.3-1.9,1.1-1.6,2.6a10.6,10.6,0,0,0,5.6,7.4,59.6,59.6,0,0,0,5.8,2.5c.7.3,1.5.6,1.6,1.5s-.7,1.5-1.6,1.8a16.6,16.6,0,0,1-5.8,1.5h-5.4c-5.2.5-9.4-1.4-13.3-4.6l-3.1-2.2c-1-.5-1.7-.2-1.7,1a18.4,18.4,0,0,0,.5,5.7c.5,2.2.4,2.2-2.2,2.7l8.6,5.5a226.8,226.8,0,0,1,26.8,19.9,4.3,4.3,0,0,1,1.7,3.6l12.1,8.4c2.6,1.1,5.2.6,7.9.4a47.9,47.9,0,0,1,13.2-5.5c4.8-1.3,9.2.2,13.1,3.3l2.3,2.2a14.6,14.6,0,0,0,2.2.3c7.8-.3,15.7.5,23.6.7,10.7.2,21.4,1,32.1,1.7,3.7.3,7.4,1.2,11.1.6a3.7,3.7,0,0,1,.5-3.1c2.1-2.5,2.9-5.6,3.8-8.6s1.2-2.2,2.7-.8a22.7,22.7,0,0,0,2.8,2.6,3,3,0,0,1,1.4,2.7,13.7,13.7,0,0,1-1,8c2.8,1.5,6,1.4,9,1.8,10.5,1.1,20.9,3,31.3,4.9,7.9,1.4,15.8,3.1,23.6,5.3s17.7,4.6,26.4,7.5a89.4,89.4,0,0,1,9.8,3.7,10.5,10.5,0,0,0,5.2,1.2,1.2,1.2,0,0,0,1.8.8c-.5-.4-1-1-1.8-.9A29.7,29.7,0,0,0,989.7,236.4ZM706.9,64.4h0v0Zm65.8,36.1a42.4,42.4,0,0,0-7.7-3.8,24.8,24.8,0,0,1-3.7-1.7c-.6-.4-1.5-.7-1.4-1.5s1.3-1,2.1-1a14.3,14.3,0,0,1,9.5,3.1,16.9,16.9,0,0,1,5.4,7.2A19.7,19.7,0,0,1,772.7,100.5Zm9.8-17.8c-1-.2-2.1-.2-2.9-1.1.8-.8,1.7-.6,2.5-.7,3.1-.2,6.2-.3,9.2-.7,5.2-.7,10.4-.3,15.6.1s4.9,1.3,5.2,5a8.5,8.5,0,0,1,0,1.6c-.6,4.7-2.5,6.1-6.4,3.3s-8.4-4-12.9-5.2S785.9,83.5,782.5,82.7Zm46.1,70.1a8.4,8.4,0,0,1-3-1.1l-7.6-4a11.3,11.3,0,0,1-5.5-5.5,104.6,104.6,0,0,0-20.1-28.7l-1.3-1.6a24.1,24.1,0,0,1,10.3,4.3,49.2,49.2,0,0,1,13.9,13c2.6,3.6,5.2,7.3,4.9,12.2-.1,1.9,1.2,3.4,2.4,4.7l4.8,4.8C827.9,151.4,828.7,151.7,828.6,152.8Zm53.7,34.4c-.1.8-.2,1.8-1.1,2.1s-1.4-.5-1.9-1a17,17,0,0,0-4.5-3.5,13.9,13.9,0,0,0-8.5-1.2c-3.3.5-4.7,2.3-4.7,5.7,0,.6.3,1.3-.2,2a3.9,3.9,0,0,1-2.5-.7,13.2,13.2,0,0,0-8-1.7c-3.8.6-6.1-1.8-8.2-4.4.2-.8.7-.6,1.1-.5,2.8,1,4.7-.3,6.2-2.5s1.7-4.7.2-6.9-4.7-5-7.1-7.4-2.5-.8-4.2.7-2.3,1.9-4.1-.3a18.3,18.3,0,0,1-2.3-4.9c-.6-1.5-.2-2.1,1.4-1.7a41.2,41.2,0,0,0,10.5.6l6.4-.5c.7-.1,1.4-.3,1.4-1.1s-.7-1-1.4-1a11.3,11.3,0,0,1-3.1-.6c-.5-.3-.9-.6-.7-1.3s.6-.5,1-.5c5.1,0,10.3,0,15.3,1.3a39,39,0,0,1,10.2,4.6c3.4,2.1,5.9,4.9,6.4,9.3s2.2,7.4,2.4,11.2C882.3,184.4,882.4,185.8,882.3,187.2Z"/>
          <path class="cls-9" d="M1024.8,124.4l-.5-.5a3,3,0,0,0-.1-2.1h0a135.2,135.2,0,0,0-6.2-18.6l-.6-2.4-.8-.2h-.1a4.4,4.4,0,0,0-.6-2.5c0-2.4-.1-4.9-.1-7.4a2.2,2.2,0,0,0,.1-1.6,3.1,3.1,0,0,0-.3-2.8,9.4,9.4,0,0,1-.4-1.6l.4-.5-.3-1.3a13.4,13.4,0,0,1-1.1-1.4c-.3-.8-.5-1.7-.8-2.6s0-.7-.4-.9.1-1,.1-1.5l-.8-1.3-.6-1.6c-2.7-4.1-6.2-7.5-9.4-11.2-1-1.1-1.9-2-3.5-2-.6,1.7.6,2.4,1.5,3.2a26.1,26.1,0,0,1,8.2,12.4,4.7,4.7,0,0,0,1.3,2.5,5.9,5.9,0,0,1,.2,1.3,3,3,0,0,0,.7,2.9,3.1,3.1,0,0,0,.7,2.1l-1.2,2.6c-1.7-.1-2.2-1.3-2.6-2.6s0-.8-.4-1.1l-.3-1.5c-.8-3.5-.3-7.5-3.5-10.2a11.4,11.4,0,0,0,.5,3.7,21.7,21.7,0,0,1,.8,5.1c0,1.2-.2,2.3-1.6,2.7a8.7,8.7,0,0,0-3.1-2.3c-4.6-2.6-9.7-2.9-14.8-3s-4.9,1.1-4.9,4.9-.6,3.2-3.3,2.4a53,53,0,0,1-8.6-3.4,3.9,3.9,0,0,1-2.9-1.3h-.1c-2-.2-3.2-2.2-5.2-2.2h-.1c-.1-1-1.1-1.4-1.6-2a3.1,3.1,0,0,1,2-1.7,3.4,3.4,0,0,0,1.8-1.5L960.7,72c-2.1.8-3.2-.9-4.6-1.9a9.2,9.2,0,0,1-1.7-2.2h0c-2.3-5.9-.5-11.4,2-16.8,1.5-3.1,3.7-5.7,5.6-8.5h0c.8-.4,1.1-1.2,1.7-1.8,3-3.2,6-6.2,10.4-7.4,0-.4.1-.8.1-1.3l-4.7.3a1.8,1.8,0,0,1-1.7,1l-1,.8a44.2,44.2,0,0,0-11.7,11.1c-2,2.5-3.4,5.3-6,7.4a29.3,29.3,0,0,1-14,6.3,3.9,3.9,0,0,0-2.1-.3c-3.3-1.4-6.2.6-6,4.1a8.7,8.7,0,0,0,2.2,5.5c.3,1.5,1.5,2.8,1,4.7-2.2-.2-4.4-.9-6.6-.8-4.5.2-6.6,2.8-5.5,7.2.5,1.6,1.2,3.2,1.8,4.8a20.5,20.5,0,0,1,1.7,7.7c0,1.9-.8,2.5-2.6,1.9a7.1,7.1,0,0,1-4.2-3.6c-.8-1.4-1.2-3-2.2-4.3a5,5,0,0,0-2.9-4.1c.1,1.9-.2,3.3-2.1,3.7s-1.7,1.1-2.3,2.1a3.9,3.9,0,0,1-4.8,2c-6.2-1.4-12-3.6-16.8-7.9h-.2l-.4-.6a1.6,1.6,0,0,1-1-.8l-.2-.2c-.2,0-.3-.1-.3-.4a8.1,8.1,0,0,1-2.9-3.2,120.8,120.8,0,0,0-15-11.7,3.6,3.6,0,0,1-1-1.1h0a3.2,3.2,0,0,1-2.1-1.2,5,5,0,0,1-1.9-1.3,1,1,0,0,1-.8-.7h-.3a1.4,1.4,0,0,1-1.3-.7h-.1a1.1,1.1,0,0,1-.9-.6H855l-1.2-.3a1.6,1.6,0,0,0-1.3,2c2.6,1.8,5.3,3.3,7.2,6,1.2.7,1.5,1.6.1,2.2a5.7,5.7,0,0,0-2.4,2.2c.2.6.3,1.2.5,1.8a42.8,42.8,0,0,1,3.9,8.4,1.3,1.3,0,0,1,.4,1.6c1.9,1.6,2.7,4,3.8,6.1a.8.8,0,0,1,.1.9,1.8,1.8,0,0,1,1.2,1.6h0c2.7,2.9,4.6,6.3,6.9,9.5a2.1,2.1,0,0,1,.3,2.4c-2.6,4.8-1.6,9.6-.2,14.4a2.9,2.9,0,0,1,1.2,1.5,12.2,12.2,0,0,0,12.1,1.7c2.8-1,5.4-.3,7.8,1.3a2.8,2.8,0,0,1,1.8.6c3,.4,3.7,1.4,3.1,4.1s-2.2,4-2.5,6.3v.2h1.5c1.4-.1,1.7.7,1.2,1.8a8.4,8.4,0,0,0-1,3.6h.1c-.3.2-.4.4,0,.6l.4-.2-.2-.2.2.2a1.3,1.3,0,0,0,.9-.2c3-3.1,6.5-5.5,9.8-8.2a1.4,1.4,0,0,1,.3-1.4,1.4,1.4,0,0,0-.3,1.4c2.2-1,4.2-2.4,6.6-3,5.2-1.5,9.7-.3,13.9,2.7s6.1,4.7,9.2,6.9a26.5,26.5,0,0,0,6.2,3.4c.8-1.1,1.2-1.6,1.2-2.1s-.4,1-1.2,2.1a15.9,15.9,0,0,0,1.3,1.3l.6.3a6.4,6.4,0,0,1,3,1.4h.2a2.5,2.5,0,0,1,1.2.2,35.6,35.6,0,0,0,12.1,2.3c1.5.1,3.2-.2,4.5,1a1.6,1.6,0,0,1,1.6.6,9.6,9.6,0,0,1,4.9,4.4l2.6,2.6c2.5,1.6,5,3.2,8,3.8,8.9,2,15.3-6.2,15.4-12.7,0-2.7,0-2.8,2.6-3.1s5.9-2.2,8.2-4.5a19.6,19.6,0,0,0,4.2-5.7c.3-.8.7-1.6,1.6-1.8h0c.8-1.9,2.4-2.8,4.2-3.6h0l.7-1.5C1024.5,125.9,1024.3,124.9,1024.8,124.4ZM878.9,97.6c-.5.4-1,.1-1.4-.2a4.3,4.3,0,0,1-1.2-1.1c-3.1-4.4-6.7-8.5-9.5-13.2-.5-.8-.9-1.7-1.3-2.5s-.5-2.4.7-3.1,2.1.2,2.7,1a35.1,35.1,0,0,1,2.7,4c2.2,3.5,4.3,7.1,6.4,10.6a6.7,6.7,0,0,1,1.2,3.6A1.3,1.3,0,0,1,878.9,97.6Zm32.3,31.7c0-.1.1-.2.1-.4S911.2,129.2,911.2,129.3Zm48.7-87a1.3,1.3,0,0,0-.8.3A1.3,1.3,0,0,1,959.9,42.3ZM958.7,101c-3.8.1-7.6.8-11.3-.9L948,99a3,3,0,0,1-.8-2.6A3,3,0,0,0,948,99c3.7.1,7.2-.9,10.9-.3.8.1,2.3-.2,2.3,1S959.8,100.9,958.7,101Zm39.6,47.7c-2.5,1.6-4.9,3.6-8.7,3.5-.1-.1-.9-.1-1.6-.4s-2.2-.9-2.1-2.1,1.5-.8,2.4-.9c3-.5,6-.7,8.6-2.3.7-.4,1.5-.5,2,.3A1.4,1.4,0,0,1,998.3,148.7Zm2.1-34a14.4,14.4,0,0,1-5.5-2.5l-4.6-3.4c-1.2-.9-2-2.1-1.1-3.6a3.5,3.5,0,0,0-.2-4.1c-1.4-1.8-2.7-3.3-5.1-3.5a56.1,56.1,0,0,0-9.2.6c-3.1.3-4.9-.6-6.5-3.3a28.2,28.2,0,0,0-9.8-9.9,34.7,34.7,0,0,1-4.4-3.1c-.9-.7-2.1-1.6-1.5-2.8a3.2,3.2,0,0,1,3.5-1.8,8.3,8.3,0,0,1,1.5.4,1.7,1.7,0,0,1,.6-1.1,1.7,1.7,0,0,0-.6,1.1,1.9,1.9,0,0,0,1.4,1.2c3.6,3.5,8,5.7,12.5,7.5l11.3,4.5a11.3,11.3,0,0,0,6.8.9c3.6-.7,4.9.3,6.2,3.8.7,1.9,1.4,3.8,2,5.8a8.5,8.5,0,0,0,5.2,5.6,3.6,3.6,0,0,1,2.5,2.7C1006.1,113.5,1004.2,115.6,1000.4,114.7Zm12.7,19.6c-1.1,1-2.2,1-3.4-.2s-2.8-2.9-3.1-5a1.5,1.5,0,0,1,2.1-1.6,9,9,0,0,1,4.9,3.4A2.5,2.5,0,0,1,1013.1,134.3Zm7.3-12.1a18.7,18.7,0,0,1-3.2-3.1c-2.8-2.7-3.8-2.9-7.2-.8l-1.1.6c-1.6.5-2.3-.2-2-1.7s.6-1.6.8-2.5a11.6,11.6,0,0,0-.3-6.9,4,4,0,0,1,.1-3.7c1.1-2.1.7-4.5.9-6.8,1.6-.3,2.1.8,2.8,1.6s3.1,3.4,4.6,5.2a13.4,13.4,0,0,0,.7,1.8,46.1,46.1,0,0,1,5,12.9,17.6,17.6,0,0,0,1,3C1022,122.9,1021.2,122.7,1020.4,122.2Z"/>
          <path class="cls-10" d="M890.9,69.3a10.1,10.1,0,0,1,7.4,1.3,32,32,0,0,1,6.5,4.6c.4.4.8,1.1,1.8.2a12.5,12.5,0,0,0-7.3-7.3c-1.4-.6-2.8-1-4.1-1.7-7.2-3.3-13.8-7.6-20.5-11.7-3.3-2-6.7-3.8-10-5.7a1.4,1.4,0,0,0-2,.3c-.6.7-.2,1.4.3,1.9l2.3,2.7a2.6,2.6,0,0,1,1.5,1.2c.2,0,.3.1.4.3,2.1.5,2.3,2.2,2.6,3.9.8,4.6,2.4,8.7,6,12s4.2,2.6,7.4,1.3c1.1-.4,2-1.3,3.2-1.4C887.5,69.6,889.1,69.3,890.9,69.3Z"/>
          <path class="cls-11" d="M886.4,71.2Z"/>
          <path class="cls-12" d="M958.3,58.8c-.6,2.2-1.1,4.3-.4,6.6s1.6,3.3,4,3.4,5.5.1,8.1-1.2a2.2,2.2,0,0,1-.5-1.7,2.2,2.2,0,0,0,.5,1.7,8.3,8.3,0,0,0,4-1.6c2.9-1.9,2.9-1.9,4.4,1.2l.3.2c.4.6.6,1.5,1.6,1.3s.8-1.1.8-1.8a38.5,38.5,0,0,0-.1-4.8c-1-6.9-1.6-13.9-4.4-20.5-.5-1.2-.5-2.4.8-3s2,.4,2.6,1.3a11.1,11.1,0,0,1,1.6,3.5c.3,1,.8,1.8,1.9,1.9s1.3-1,1.6-1.8c1.8-3.9,1-6.7-2.6-9.2a2.2,2.2,0,0,1-1.4-.6c-1.2,0-2.5-.4-3.8.3l-1.2-.6a3.1,3.1,0,0,1-1.9.1c-1,2.7-3.4,4.5-5.3,6.6A53.4,53.4,0,0,0,958.3,58.8Z"/>
          <path class="cls-13" d="M974.2,33.5h0Z"/>
          <path class="cls-14" d="M847.8,98.5c3.5,2.8,7,5.6,10.6,8.2,1.3,1,2.6.7,3-.9.7-3.4,1.9-6.7,2.7-10.2.5-2-.7-3.1-3.1-3.1a32.9,32.9,0,0,1-7.1.6l-1.6.2a10.6,10.6,0,0,0-4.2,1.5C846.2,96.1,846,97.1,847.8,98.5Z"/>
          <path class="cls-15" d="M865.8,41.8h2.6c2.4,1.2,5,1.5,7.7,1.9a4,4,0,0,0,1.9.7,6.7,6.7,0,0,0,3.8,1.5,35.4,35.4,0,0,0,5.2,2.5,1.2,1.2,0,0,0,1.3.5l.5.6c3.3,1.6,6.2,3.9,9.3,5.8a.8.8,0,0,0,1,.7,12.2,12.2,0,0,0,3.6,3.2.7.7,0,0,0,.6.7l1.3.4c.9-.3.3-.7.1-1.1a10.7,10.7,0,0,0-2-3.2l-4.9-5.3c-1.8-2.1-1.7-3.4.2-5.2s3-2.4,4.5-3.6c3.6-1.1,7.3-2.2,11.2-2.2a166.4,166.4,0,0,1,29.9,2.9,7.4,7.4,0,0,0,4.8-.6,15.8,15.8,0,0,0-4.7-2.6,157.4,157.4,0,0,0-16.5-5.1c-5.5-1.4-11-3.1-16.8-3.8a1.4,1.4,0,0,0-2-.2,7.2,7.2,0,0,0-3.8-.7,1.2,1.2,0,0,0-1.8,0,4.6,4.6,0,0,0-2.6.1c-1.2-.9-2.5-.5-3.8-.4a74.4,74.4,0,0,0-22.9,4.9c-7.8,3-15.7,5.3-24.1,5.9-.9.1-1.9-.1-2.6.8C849.6,42.8,859.1,43.2,865.8,41.8ZM890.6,32a1.1,1.1,0,0,0,.8-.1A1.1,1.1,0,0,1,890.6,32Zm3.8,0h0Zm.1.1c.1.2.4.3.8.3S894.6,32.3,894.5,32.1Zm-.2-.3c-.2-.2-.2-.6-.3-1h0C894.1,31.2,894.1,31.6,894.3,31.8Zm-1.9-.9h0Z"/>
          <path class="cls-16" d="M888.8,49.6h0c0-.1,0-.1-.1-.1Z"/>
          <path class="cls-17" d="M567.7,117.8c-7.1-7.7-14-15.5-21-23.3-.2-.2-.3-.6-.5-.8a18.8,18.8,0,0,1-3.3-3.6,7,7,0,0,1-2.6-2.8l-2.4-2.1a288.2,288.2,0,0,0-26.7-23.9,158.7,158.7,0,0,0-21.6-14.8c-12.9-7-27-9.7-41.4-10.7-.6,0-1.3-.2-1.8.6,1.4,1.1,3.1,1.3,4.7,1.8,12,3.4,21,10.6,27.5,21.1a7.6,7.6,0,0,1,1.2,1.9c.4.8,1.3,1.7.5,2.6s-1.6.2-2.4-.1a58.4,58.4,0,0,1-6.6-2.4c-6.9-3.4-13.6-7-20.3-10.8-10.8-6.1-21.4-12.8-32.6-18.3C410,28,401.3,24.5,392,22.7c-.5-.1-1.2-.5-1.6.4s1.9,1.7,2.9,2.5,3.7,2.1,5,3.9a37.6,37.6,0,0,1,9.8,7.5h0a21.4,21.4,0,0,1,6.2,5.4h0c1.1.3,1.7,1.3,2.5,2l16.5,15.6A188.4,188.4,0,0,0,465,83.6a137.9,137.9,0,0,0,28.9,12.7c9.1,3,18.2,5.8,27.3,8.9a64.5,64.5,0,0,1,12.8,5.1c3.3.6,5.9,2.6,8.8,4.2a12.7,12.7,0,0,1,3.4,2.7L534,112c-9.5-3.2-19.3-5.1-29.1-7a195.9,195.9,0,0,1-22.8-6,103.6,103.6,0,0,1-22.5-10.8c-9.4-6-18.8-12-27.5-18.8s-15.1-11.5-22.8-17c-4.1-2.9-8.3-5.6-12.5-8.3a7.8,7.8,0,0,1-2-1.6c-.2,0-.3,0-.4-.2a10.6,10.6,0,0,1-4.8-3c-.2.1-.3,0-.3-.1-3.1-.8-5.5-3-8.4-4.2a24.3,24.3,0,0,0-3.7-1.6h0a.8.8,0,0,0-.7-.5,14.5,14.5,0,0,1-3.4-2,.4.4,0,0,1-.5-.2v.5l-1.2-.4a2.3,2.3,0,0,0-2-1.1,64.2,64.2,0,0,0-11.4-4,73.8,73.8,0,0,0-15.3-4.2c-1.2-.3-2.4-.2-3.4-.8l-1.3-.3a2.7,2.7,0,0,1-2.6-.4h-1.2a113,113,0,0,1-17.4-1.1h-1.2c-1.8.8-3.7.6-5.6.9-3.8.6-7.3,2.1-11.1,2.8a2.2,2.2,0,0,1-2.1.3,1.6,1.6,0,0,1-1.7,1l-1,.2a5.3,5.3,0,0,1-2.8,1.4l.6.7c3.2-.7,6.4-1.4,9.7-1.9a79.8,79.8,0,0,1,23.9.1,101.5,101.5,0,0,1,24.4,7.6c3.1,1.3,6,3.2,9.3,4.2h0l1.5.8h0a2.6,2.6,0,0,0,2.3,1c.1.2.2.2.4.2h0a1.7,1.7,0,0,0,1.4.9,25.1,25.1,0,0,0,5.9,3.4,4.3,4.3,0,0,0,2.4,1.6,4.4,4.4,0,0,0,2,1.3h0a1.9,1.9,0,0,0,1.3.7c3.8,3.2,8.5,5.1,12.6,8.4-1.9,1.1-3.4.7-5,.1a199.2,199.2,0,0,0-21.2-7.8c-7.5-2.2-14.9-4.5-22.6-5.8a45.6,45.6,0,0,0-11.7-1.1h0l-2.1-1a8.1,8.1,0,0,1-3.1,0,6,6,0,0,1-.8.8h-1.1c-3.4-.9-6.7.1-10.1.3l-5.9.4H304c-4.1.7-3.8,1.1-4.7,1.2s-3,.6-5.9,1.8a36.2,36.2,0,0,0-4.5,2c-1.7,1.1-13,7.4-12.9,7.8s10.3-3.9,12.9-5.2,4.4-2.4,5.2-2.6a96,96,0,0,1,10.7-2l8.2-.8,1.8.2h0a1.7,1.7,0,0,0,1.5.3,10.2,10.2,0,0,0,3,.3l.5-.4-.5.4a1.8,1.8,0,0,0,1.4.4c2,.8,4.3.6,5.8,2.5a7.6,7.6,0,0,1-4.5,2.1c-7.3.9-14.6,1.3-21.8,3a80.1,80.1,0,0,1-12,1.3l-10.8.9c-2.1.2-4.5.6-6.6-.4a11.1,11.1,0,0,1-2.7.6,48.8,48.8,0,0,1-20.4,2.7h-1.3a2.2,2.2,0,0,1-1.4-.1,7.1,7.1,0,0,1-2.9,0c-8,1.1-15.9,2.4-24,1.9-4.2-.3-8.5-.4-12.7-.6a3.9,3.9,0,0,1-2.6,0c-2.1.9-4.2.6-6.3.6-4.1,0-8.3.6-12.4-.2a7.6,7.6,0,0,1-3-.1,6.9,6.9,0,0,1-3.2.3L157.6,57c-1.1-.1-2.2.1-3-.8h-.2a33.1,33.1,0,0,1-4.4.2c-5.9-.6-11.7-1.1-17.5-1.9C113.7,52,95.2,47.7,76.6,44a184.8,184.8,0,0,1-23.3-5.9A87.6,87.6,0,0,1,21.1,19.5a61.3,61.3,0,0,1-7-7.4c-.3-.5-.7-1.2-.3-1.8s1.1-.4,1.7-.3l9.8,2.8c7.6,2.4,15.1,4.9,22.4,7.7,18.4,7,36.8,14.2,55.5,20.5,5.1,1.7,10.3,3.5,15.6,4.7,1.2.2,2.4.9,3.7-.1-1.3-1.4-3-1.6-4.4-2.1-13.9-4.7-27.7-9.6-40.9-15.9-1.4-.6-3.1-.8-4.2-2.1a1.3,1.3,0,0,1-1-.4,82.6,82.6,0,0,1-11.6-5.6h-.1l-1.5-.4c-6.3-3.3-13.1-5.5-19.6-8.3A190.5,190.5,0,0,0,11.6,1.5C9.3.9,6.9.5,4.4.1S-.2.7,0,4.3A11.3,11.3,0,0,0,2.2,9.6c5,7,11.3,12.7,18,18,3,2.3,6.2,4.5,9.2,6.7a2.9,2.9,0,0,1,1.8,1A35.9,35.9,0,0,1,34.6,37a98.7,98.7,0,0,0,16.7,8.8c5.5,2.3,10.9,4.8,16.5,6.8,1.3.5,2.8.9,3.8,2.1l1.3.3,1.8.4,12.5,4.7c1.3.5,2.8.4,3.8,1.6l1,.2c4.3.7,8.3,2.4,12.5,3.4,2.4.6,5,1,7.1,2.4l1.6.3a16.1,16.1,0,0,1,4.8,1.2c3.7,1,7.6,1.5,11.2,2.9a7.6,7.6,0,0,1,3.9,1,31.3,31.3,0,0,1,9.6,1.7l1.2.2c5.4.4,10.7,1.5,16.1,2.3,1.9.3,4.1.1,5.8,1.3a7.1,7.1,0,0,1,2.5.2,3.4,3.4,0,0,1,2.6.4,21.2,21.2,0,0,1,4.4.4,1.7,1.7,0,0,1,1.4.3l1.8.3c1.5.1,3.2-.7,4.4,1a2.3,2.3,0,0,1,2.6-.3,1.9,1.9,0,0,1,1.9.2,5,5,0,0,1,2.7.1c1.5-.3,3-.6,4.4.5a3.1,3.1,0,0,1,1.9,0,41.6,41.6,0,0,1,11.1.8,2.5,2.5,0,0,1,1.7.1,92.4,92.4,0,0,1,14.9.5,13.9,13.9,0,0,1,5,.3,238.5,238.5,0,0,0,26.7-1.2,74.2,74.2,0,0,1,14.9-.1H272a50.3,50.3,0,0,1,11.6-.7,1.3,1.3,0,0,1,1.2-.2,11.1,11.1,0,0,1,4-.6q9.6-.9,19.2-2.4a7,7,0,0,1,2.5,0l1.1-.2a4.2,4.2,0,0,1,2.4-.9c6.6-.5,12.9-2.4,19.4-3.7A196.7,196.7,0,0,1,365,69.2l1.2-.2a9.1,9.1,0,0,0-.5-2.1,9.1,9.1,0,0,1,.5,2.1h1.9v0a4.6,4.6,0,0,0,2.6,0H372a18.4,18.4,0,0,0,7,.7l1.6.2h0a1.1,1.1,0,0,0,1.6.4l1.1.2h0a8,8,0,0,0,4.7,1.5l5.4,2.4c.8.9,1.3,1.9-.5,2.2s-4,.7-5.9,1.2a49.1,49.1,0,0,0-12.4,4.8,8.8,8.8,0,0,1-3.6,1.4,2,2,0,0,1-2,1.1c-1.6,2.1-3.9,3-6.3,3.8-.1.8-.8,1.1-1.4,1.3-1.9,1.9-4.3,3.2-6.4,4.8A86.5,86.5,0,0,0,333.6,117a38.4,38.4,0,0,0-1.8,3.5,2.6,2.6,0,0,1-.3,2.1,46.5,46.5,0,0,0-4.6,13.6,1.7,1.7,0,0,1-.8,1.3,4.7,4.7,0,0,1-.4,2.3c.1.8-.3,1.2-1.1,1.4l-1.2,1.2a1.3,1.3,0,0,1-1.4,1.2l-.4.2a5.1,5.1,0,0,1-4,3.2l-1.3,1.2c-.3,1-.8,1.8-2.1,1.7l-1.1.8c-.3,1.5-1.3,1.9-2.6,2l-.7.5c-1.3,3.3-4.6,4.3-7.2,6-5,3.3-10.5,5.6-15.9,8.1-.5.2-1,.4-.9,1.1s.9.6,1.5.8l2.1-.5a2.7,2.7,0,0,1,2.4-.7l.7-.2a1.3,1.3,0,0,1,1.2-.5c7.3-2.5,13.9-6.5,20.6-10.1l4.4-2.6a88,88,0,0,1,20.5-11c2.1-.8,4.3-.8,6.6-1.1s4.1-1.8,4.1-4.7-1.9-5.6-5.4-6.4l-2.9-.4c-2.1-.5-2.5-1.6-1.4-3.5l1.4-1.8c3-3.3,6-6.6,9.1-9.8a104.5,104.5,0,0,1,24.2-18.2,97.1,97.1,0,0,1,17.8-7.8,95.2,95.2,0,0,1,34.8-4.3l3.5.5a1.2,1.2,0,0,1,.9.8c.1.6-.5.9-1,1.1l-1.5.3a102.3,102.3,0,0,0-16.2,5.3l-9.2,4c2,1,3.5.6,4.9.5,8.4-.6,16.8-1.4,25.3-1.1,1.9,0,3.8.4,5.7,0l1.4.2c1.4.8,2.9.6,4.4.4l1.3.3a1.5,1.5,0,0,0,1.8.2,8.1,8.1,0,0,0,2.7.5,1.8,1.8,0,0,0,1.9.3,2.2,2.2,0,0,0,1.4.1,2.7,2.7,0,0,0,2.4.8,5,5,0,0,0,2.7.5,3.2,3.2,0,0,0,2.4.9,9.4,9.4,0,0,0,1.5.6c6.9,2,13.1,5.5,19.3,9.2,2.4,1.5,2.4,2.4-.1,3.7a24,24,0,0,1-9.9,2.4c-11.6.4-22.9-2-34.4-3.3-3.3-.4-6.5-1-9.8-1.5a51.4,51.4,0,0,0-9.6-.3c-3.1.3-6.3.4-9,1.2a31.5,31.5,0,0,0,5,1,83.9,83.9,0,0,1,23.7,6.3,78.1,78.1,0,0,0,36.4,5.5c16.8-1.5,33.4.3,49.9,3.5,8.3,1.6,16.3,4.3,24.3,7,2.6.9,5.3,1.7,7.5,3.4a3.3,3.3,0,0,1,2.8,1.1l4.9.2c3.1-.4,6.3-.1,9.5-.4a117.9,117.9,0,0,1,19.7-.1c3.2.1,6.4.4,9.5.2-4.4-1.7-9-3.2-13.2-5.5A86,86,0,0,1,567.7,117.8ZM364.1,38.2l.5.4Zm8.5-7h0a.8.8,0,0,1-.7,0A.8.8,0,0,0,372.6,31.2Zm-.9,10.9a.9.9,0,0,1,.7.3A.9.9,0,0,0,371.7,42.1Zm-51.7.8Zm7.4,4.8v0Zm-.2-.8.2.4ZM313.8,66.3c-12.4,2.6-24.8,5-37.5,5.9-10,.6-20,.2-29.8-2.8-.7-.2-2-.1-1.8-1.2s1.4-.8,2.2-.8c15,0,29.7-2.4,44.5-4.5l1.8-.5c5.1-.5,10.2-1.4,15.3-2.4a1.6,1.6,0,0,1,.8-.6,1.6,1.6,0,0,0-.8.6,1.3,1.3,0,0,0,1.8-.6,8.8,8.8,0,0,0,3.3-.4,12.2,12.2,0,0,1,6.1-2.6,12.2,12.2,0,0,0-6.1,2.6c2.5.2,4.7-1,7.1-1.4a4.2,4.2,0,0,0,3-1.5,2.2,2.2,0,0,0,2.1-.4,1.9,1.9,0,0,1,.9-.9,1.9,1.9,0,0,0-.9.9,2.3,2.3,0,0,0,2.1-.3c6.5-1.2,13.1-.8,19.7-.7a7.6,7.6,0,0,1,3.6,1.1h0c-1.1,1.6-2.9,1.9-4.5,2.2C335.6,60.1,324.9,63.9,313.8,66.3Z"/>
          <path class="cls-18" d="M408.1,37Z"/>
          <path class="cls-19" d="M709.8,154.6c-9.6-7.8-20.6-12.8-32.3-16.4a235.2,235.2,0,0,0-36.9-7.8c-10.9-1.5-21.8-2.8-32.5-5.3-7.7-1.9-15.3-4.2-22.3-8a11.4,11.4,0,0,1-4-3.3,57.3,57.3,0,0,0,11.7,4.2,114.8,114.8,0,0,0,46.2,4.1l3.2-.3a1.9,1.9,0,0,0,2-2.3,10,10,0,0,0-1.6-5.8c-1.3-1.7-.8-2.8,1.2-3.6a4,4,0,0,1,4.4.9,28.3,28.3,0,0,1,2.4,2.5c3.3,3.6,7.5,4.8,12.1,4.8,2.6,0,3.5-1.5,2.3-3.8a9.5,9.5,0,0,0-2.5-2.8c-1.1-.7-2.3-.6-3.4-.8s-1.8-1-.8-2.1a4.9,4.9,0,0,1,5-1.4l4.3,1.1c.7.1,1.6.7,2-.3s-.5-1.3-1-1.7a4.1,4.1,0,0,0-1.1-.7,192.6,192.6,0,0,1-28.6-21.5,278.9,278.9,0,0,1-29.8-31.7,70.9,70.9,0,0,0-37-23.9c-10.9-3.1-21.9-2.6-32.9-.5-3.5,2.4-6.5.5-9.4-1.3l-.6-.3a196,196,0,0,0-32.4-14.4,4.3,4.3,0,0,1-2.6-1.1h-1.2L477,7.3a32.8,32.8,0,0,1-7,0c-3,.8-6.2.3-9.6,1.5l18,3.3a72.3,72.3,0,0,1,18.7,6.3c14.7,7.2,28.6,15.6,42.4,24.4,11,7.1,21.6,14.8,32,22.8,13.5,10.6,27.2,21,40,32.4,2.4,2.2,4.7,4.4,6.9,6.7,3.7,3.9,3,6.2-2.3,7.8-.3.4-.8.4-1.3.4s-3.5,1.1-5.2.9c-18.2-2.1-35.5-7-50.8-17.6l-1.9-1.3c-.4-.3-.9-.7-1.4-.1s-.2,1,.1,1.5l3.9,5.4c8,11.1,17.4,20.7,29,28.1a80.6,80.6,0,0,0,21,9.3l11.1,3.1a55.9,55.9,0,0,0,5.9.8c5.1.3,10,2,15.1,2.7a2.7,2.7,0,0,1,1.5,1.1H645c9.8,2,19.5,4.5,29.1,7.3,1.3.4,2.6,1.1,4,.9-.3-.6-1.1-1-1-1.9s1.1-.6,1.7-.6a47.1,47.1,0,0,1,24.5,5.1,69,69,0,0,1,15.1,10.7c1.4,1.2,2.7,2.6,4.7,3.2.5-1.8-.4-3-1.3-4.2A63.3,63.3,0,0,0,709.8,154.6ZM600.5,67.2c-.3,1.1-1.3.9-2.1.9-3.9,0-7.6-.7-10.9-3.1-11-7.9-22.1-15.6-33.2-23.4-3.3-2.3-6.8-4.5-10.1-6.7a6.8,6.8,0,0,1-2.9-2.7,13.4,13.4,0,0,1,7.8-1.5,39.9,39.9,0,0,1,22.4,8.5,288.5,288.5,0,0,1,28.1,26.1C600.1,65.9,600.8,66.4,600.5,67.2Z"/>
          <path class="cls-20" d="M863.9,170l-3.8.5c-2.7.3-3.2.8-3.2,3.6s2.3,6.3,5.8,5.7a6.4,6.4,0,0,0,5.1-5.8C868,171.2,866.7,169.9,863.9,170Z"/>
        </g>
        <path class="cls-21" d="M435.4,237.2a2,2,0,0,1-1.5-.6A22.1,22.1,0,0,1,428,234a44,44,0,0,1-10.6-4.1l-1.3-.3-.6-.2a3,3,0,0,1-2.3-1.1h-.1c-3.2-.6-6.1-2-9-3.1-11-3.9-22-7.8-33.2-11.1a4.7,4.7,0,0,1-2.5-1.3h-.3a20.9,20.9,0,0,1-4.9-1.3c-9.1-2.8-18.3-5.3-27.4-7.7-7.3-2-14.7-3.6-22.1-5.3a1,1,0,0,1-1.4-.4l-1.3-.2a1,1,0,0,1-1.6-.3l-1.5-.2a1.9,1.9,0,0,1-1.8-.3,30.4,30.4,0,0,1-6-1.2h-.4l-2.1-.4a13.3,13.3,0,0,1-6.8-1l-1.5-.2a2.1,2.1,0,0,1-2.4-.4l-2.7-.2c-1.3.2-2.5.4-3.7-.4l-2.1-.3c-1.9.4-3.8.6-5.6-.4l-6.6-.3c-2.5.7-5,.4-7.5.7-.6.1-1-.3-1.4-.7a9.6,9.6,0,0,1-3.4.2c-2.6,1.4-5.5.7-8.2,1.3a23.3,23.3,0,0,1-3.8.4c-.3.8-.8,1-1.4.8s1.1,0,1.4-.8l-.6-.7h-1.2c-.1.3-.1.6-.2,1l-5.5.5h0a2.8,2.8,0,0,1-.1-.9h-1.2a2.9,2.9,0,0,0-.2.9l-8.3.9-.9.5a20.7,20.7,0,0,0-9.2,1.1l-.2.2.2-.2h-.9c-3.4-.6-6.7.7-10.1.9-.3.7-.7,1-1.1,1s.8-.3,1.1-1a2.1,2.1,0,0,0-2,.4l-5.1.6h0c-5-.2-9.9.7-14.8,1s-7.2.9-10.7,0h-2.5a3.3,3.3,0,0,1-2.7.8H143.5c-.9,0-1.9.1-2.6-.7h-1.5a17.9,17.9,0,0,1-9.4-1.1l-1.5-.2a23.3,23.3,0,0,1-12.2-2.4l-2-.4a2.6,2.6,0,0,1-2.9-.8l-1.5-.3c-1.9.4-3.5-.5-5.2-1a105.5,105.5,0,0,1-16.8-7.6c-.4-.2-.7-.7-1.1-1L84.9,185c-2.8-.8-5.4-2-6.9-4.7l-.8-.5-1.5-.2c-1.6-.2-2.2.6-2.3,2s.3,3.3.4,5a65.3,65.3,0,0,0,3.4,15.3c1.4,4.2,2.9,8.6,5.3,12.3a60.1,60.1,0,0,0,9.2,12.2c.8.8,1.7,1.4,1.9,2.5l2.9,2.7c.7,0,1.1.3,1.1,1l.2.2c1.3,1.1,3.3,1.5,3.5,3.5a8.7,8.7,0,0,1-1.6,6.6,131.7,131.7,0,0,0-10.3,18.8,95.1,95.1,0,0,0-4.9,15.1,73.7,73.7,0,0,0-2.3,20.9,15.1,15.1,0,0,0,.6,3.7c.1.5.2,1.2.8,1.2s.9-.4,1.2-.9c4-6.2,7.7-12.5,12-18.5,8-11.3,16.7-22.1,27.1-31.3a91.2,91.2,0,0,1,16-11.7c10.4-6,21.6-10.2,32.9-13.9a161.2,161.2,0,0,1,20.3-5.7l1.5-.5a3.6,3.6,0,0,0-.4-.9,3.6,3.6,0,0,1,.4.9l8.9-1.9h0a4.2,4.2,0,0,0,2.7-.5c5.9-.8,11.8-1.7,17.7-2.3s14.4-1.9,21.6-1.8c3.8,0,7.7-.4,11.5-.5,1.1,0,2.3-.2,3.3.6a18.8,18.8,0,0,1,4.1.1,74,74,0,0,1,13.3.2l12.3,1a2.6,2.6,0,0,1,1.8.6h1.4a22.1,22.1,0,0,1,8.8,1.2l2,.3a46.5,46.5,0,0,1,13.4,2.3l1.4.3a1.1,1.1,0,0,1,1.2.2l1.3.3a1.9,1.9,0,0,1,1.9.4l1.3.3a4.7,4.7,0,0,1,3.8.9l2,.4a1.1,1.1,0,0,1,1.2.2,9,9,0,0,1,2.8.8h.4l5.2,1.4a5.9,5.9,0,0,1,3.2.8l1.4.5a.9.9,0,0,1,1.1.3,19.3,19.3,0,0,1,4.1,1.2,15.5,15.5,0,0,1,6.7,2.1c8.7,2.7,17.2,5.7,25.5,9.2a11.9,11.9,0,0,0,5.3,1l20.4-.5c6.5,0,13-.4,19.5-.1a4.3,4.3,0,0,1,2.5,0c2.3-.6,4.8,0,6.9-1.3Z"/>
        <path class="cls-22" d="M249.8,322.4c-2.7,0-4-1.2-4-3.5a7.2,7.2,0,0,1,1-3.5l4.1-7a8.5,8.5,0,0,0,1-3.5c0-2.3-1.3-3.5-4-3.5a12.2,12.2,0,0,0-6.1,2,15.5,15.5,0,0,0-4.9,5l-28.3,49a7.8,7.8,0,0,0-1.1,3.5c0,2.4,1.3,3.5,4,3.5a12.5,12.5,0,0,0,6.2-2,13.8,13.8,0,0,0,4.9-5l12.1-21a15.5,15.5,0,0,1,4.9-5,12.2,12.2,0,0,1,6.2-2h35c2.7,0,4.1,1.2,4.1,3.5a6.7,6.7,0,0,1-1.2,3.5l-16.2,28a13.8,13.8,0,0,1-4.9,5,12.2,12.2,0,0,1-6.1,2h-98c-2.7,0-4.1-1.1-4.1-3.5a7.5,7.5,0,0,1,1-3.5l36.5-63a13.8,13.8,0,0,1,4.9-5,12.5,12.5,0,0,1,6.2-2h98.1c2.6,0,3.9,1.2,3.9,3.5a7.2,7.2,0,0,1-1,3.5l-8.2,14a14.6,14.6,0,0,1-4.9,5,12.2,12.2,0,0,1-6,2Z"/>
        <path class="cls-23" d="M420,294.4c2.6,0,3.9,1.2,3.9,3.5a7.2,7.2,0,0,1-1,3.5l-36.5,63a13.8,13.8,0,0,1-4.9,5,12.2,12.2,0,0,1-6,2H340.4c-2.7,0-4-1.1-4-3.5a7.5,7.5,0,0,1,1-3.5l32.4-56a7.2,7.2,0,0,0,1-3.5c0-2.3-1.3-3.5-3.9-3.5a12.2,12.2,0,0,0-6.2,2,15.5,15.5,0,0,0-4.9,5l-32.4,56a13.8,13.8,0,0,1-4.9,5,12.2,12.2,0,0,1-6.1,2h-35c-2.7,0-4.1-1.1-4.1-3.5a8.9,8.9,0,0,1,1-3.5l67.9-117.3c1.5-2.5,3-3.8,4.5-3.8a2.7,2.7,0,0,1,2.2,1.3l19.4,33a7.5,7.5,0,0,1,.9,3.9,13.3,13.3,0,0,1-1.8,6.8,5.9,5.9,0,0,0-.8,2.7c0,2.3,1.4,3.4,4.3,3.4Z"/>
        <path class="cls-24" d="M461,338.4a14.3,14.3,0,0,0-4.8,5L448,357.3a8.7,8.7,0,0,0-.9,3.6c0,2.3,1.3,3.5,4,3.5a12.5,12.5,0,0,0,6.2-2,13.5,13.5,0,0,0,4.8-5l4.1-7a13.5,13.5,0,0,1,4.9-4.9,11.8,11.8,0,0,1,6.2-2.1h35c2.7,0,4,1.2,4,3.5a8.1,8.1,0,0,1-1,3.5l-8.2,14a13.8,13.8,0,0,1-4.9,5,12.2,12.2,0,0,1-6.1,2h-98c-2.7,0-4.1-1.1-4.1-3.5a7.5,7.5,0,0,1,1-3.5l36.5-63a13.8,13.8,0,0,1,4.9-5,12.2,12.2,0,0,1,6.2-2h98c2.7,0,4,1.2,4,3.5a8.5,8.5,0,0,1-1,3.5l-16.3,28a13,13,0,0,1-4.9,5,11.9,11.9,0,0,1-6.2,2H467.1A11.9,11.9,0,0,0,461,338.4Zm7.3-16.1a7.8,7.8,0,0,0-1.1,3.6c0,2.3,1.4,3.5,4.1,3.5a12.2,12.2,0,0,0,6.2-2,15.5,15.5,0,0,0,4.9-5l8-14a7.4,7.4,0,0,0,1.1-3.5c0-2.3-1.3-3.5-4-3.5a11.9,11.9,0,0,0-6.1,2,14.9,14.9,0,0,0-5,5Z"/>
        <path class="cls-25" d="M579.9,338.4a14.3,14.3,0,0,0-4.8,5l-8.2,13.9a8.7,8.7,0,0,0-.9,3.6c0,2.3,1.3,3.5,4,3.5a12.5,12.5,0,0,0,6.2-2,13.8,13.8,0,0,0,4.9-5l4-7a13.5,13.5,0,0,1,4.9-4.9,11.8,11.8,0,0,1,6.2-2.1h35.1c2.6,0,3.9,1.2,3.9,3.5a6.9,6.9,0,0,1-1,3.5l-8.2,14a13.8,13.8,0,0,1-4.9,5,12.2,12.2,0,0,1-6,2H517c-2.7,0-4.1-1.1-4.1-3.5a8.9,8.9,0,0,1,1-3.5l36.5-63a13.8,13.8,0,0,1,4.9-5,12.5,12.5,0,0,1,6.2-2h98.1c2.6,0,3.9,1.2,3.9,3.5a7.2,7.2,0,0,1-1,3.5l-16.2,28a13.8,13.8,0,0,1-4.9,5,12.5,12.5,0,0,1-6.2,2H586.1A12.2,12.2,0,0,0,579.9,338.4Zm7.3-16.1a7.6,7.6,0,0,0-1,3.6c0,2.3,1.3,3.5,4.1,3.5a12.2,12.2,0,0,0,6.1-2,15.5,15.5,0,0,0,4.9-5l8.1-14a8.5,8.5,0,0,0,1-3.5c0-2.3-1.3-3.5-4-3.5a11.9,11.9,0,0,0-6.1,2,14.9,14.9,0,0,0-5,5Z"/>
        <path class="cls-26" d="M650.8,418.7c-1.5,2.5-3,3.8-4.7,3.8a2.7,2.7,0,0,1-2.2-1.5l-19.2-32.8a6.9,6.9,0,0,1-.9-3.6,14.5,14.5,0,0,1,2.2-7.9l67.7-117.3a13.8,13.8,0,0,1,4.9-5,11.3,11.3,0,0,1,6.2-2h35c2.6,0,4,1.1,4,3.5a7.8,7.8,0,0,1-1.1,3.5l-8.1,14a7.1,7.1,0,0,0-1.1,3.5c0,2.3,1.4,3.5,4.1,3.5s5.3.8,5.3,2.5-1.3,2.6-3.8,3.5a20.7,20.7,0,0,1-5.6,1,11.9,11.9,0,0,0-6.1,2,15.9,15.9,0,0,0-5,5Z"/>
        <path class="cls-27" d="M834.1,294.4c2.6,0,3.9,1.2,3.9,3.5a7.2,7.2,0,0,1-1,3.5l-36.5,63a13.8,13.8,0,0,1-4.9,5,12.2,12.2,0,0,1-6,2H691.5c-2.7,0-4.1-1.1-4.1-3.5a7.8,7.8,0,0,1,1.1-3.5l16.1-28a17,17,0,0,1,5-5,11.9,11.9,0,0,1,6.1-2h49.1a11.9,11.9,0,0,0,6.1-2,14.9,14.9,0,0,0,5-5l8.1-13.9a8.7,8.7,0,0,0,.9-3.6c0-2.3-1.3-3.5-3.9-3.5a11.6,11.6,0,0,0-6.1,2,14.9,14.9,0,0,0-4.9,5.1l-4.1,7a14.3,14.3,0,0,1-4.9,4.9,12.2,12.2,0,0,1-6.1,2H719.8c-2.7,0-4.1-1.2-4.1-3.5a7.4,7.4,0,0,1,1.1-3.5l8.1-14a13.8,13.8,0,0,1,4.9-5,12.5,12.5,0,0,1,6.2-2Zm-70.4,49a7.4,7.4,0,0,0,1.1-3.5c0-2.3-1.4-3.5-4.1-3.5a11.6,11.6,0,0,0-6.1,2,14.6,14.6,0,0,0-4.9,5l-8.1,14a7.8,7.8,0,0,0-1.1,3.5c0,2.4,1.4,3.5,4,3.5a12.5,12.5,0,0,0,6.2-2,13.8,13.8,0,0,0,4.9-5Z"/>
        <path class="cls-28" d="M953.7,294.4c2.7,0,4,1.2,4,3.5a7.4,7.4,0,0,1-1.1,3.5l-36.4,63a13.8,13.8,0,0,1-4.9,5,12.2,12.2,0,0,1-6.1,2h-35c-2.7,0-4.1-1.1-4.1-3.5a8.9,8.9,0,0,1,1-3.5l32.4-56a7.4,7.4,0,0,0,1.1-3.5c0-2.3-1.4-3.5-4-3.5a11.9,11.9,0,0,0-6.1,2,17,17,0,0,0-5,5l-32.4,56a13.5,13.5,0,0,1-4.8,5,12.5,12.5,0,0,1-6.1,2h-35c-2.8,0-4.1-1.1-4.1-3.5a7.5,7.5,0,0,1,1-3.5L876,247.1c1.4-2.5,2.9-3.8,4.5-3.8a2.7,2.7,0,0,1,2.2,1.3l19.4,33a7.5,7.5,0,0,1,.8,3.9,13.2,13.2,0,0,1-1.7,6.8,5.1,5.1,0,0,0-.9,2.7c0,2.3,1.5,3.4,4.4,3.4Z"/>
      </g>
    </g>
  </g>
</svg>
